#N canvas 678 279 567 230 16;
#X obj 50 30 cnv 15 247 160 empty empty empty 20 12 0 14 -128992 -66577
0;
#X obj 245 92 hsl 30 8 0 1 0 0 \$0-redBg_gui \$0-redBg_gui_set empty
-2 -8 0 10 -258113 -1 -1 0 1;
#X obj 245 102 hsl 30 8 0 1 0 0 \$0-greenBg_gui \$0-greenBg_gui_set
empty -2 -8 0 10 -4034 -1 -1 0 1;
#X obj 245 112 hsl 30 8 0 1 0 0 \$0-blueBg_gui \$0-blueBg_gui_set empty
-2 -8 0 10 -4160 -1 -1 0 1;
#X obj 190 57 tgl 20 0 \$0-master_gui \$0-master_gui_set MASTER -4
-8 0 8 -1 -262144 -1 0 1;
#X obj 243 57 nbx 2 20 1 99 0 0 \$0-fps_gui \$0-fps_gui_set empty 5
-8 0 12 -1 -262144 -1 24 256;
#X obj 70 50 vradio 20 1 0 4 \$0-dimen_gui \$0-dimen_gui_set empty
0 -8 0 10 -1 -262144 -1 1;
#X obj 190 100 tgl 20 0 \$0-cursor_gui \$0-cursor_gui_set CURSOR -4
-8 0 8 -99865 -1 -1 1 1;
#X obj 190 143 tgl 20 0 \$0-border_gui \$0-border_gui_set BORDER -4
-8 0 8 -99865 -1 -1 1 1;
#X obj 96 53 cnv 15 65 15 empty empty 320x240 0 8 0 10 -128992 -1 0
;
#X obj 96 73 cnv 15 65 15 empty empty 640x480 0 8 0 10 -128992 -1 0
;
#X obj 96 93 cnv 15 65 15 empty empty 1024x768 0 8 0 10 -128992 -1
0;
#X obj 96 113 cnv 15 65 15 empty empty 1280x720 0 8 0 10 -128992 -1
0;
#X obj 70 136 nbx 4 12 -1e+37 1e+37 0 0 \$0-dimX_gui \$0-dimX_gui_set
empty 0 -8 0 10 -1 -262144 -1 640 256;
#X obj 120 136 nbx 4 12 -1e+37 1e+37 0 0 \$0-dimY_gui \$0-dimY_gui_set
empty 0 -8 0 10 -1 -262144 -1 480 256;
#X obj 70 168 nbx 4 12 -1e+37 1e+37 0 0 \$0-offsetX_gui \$0-offsetX_gui_set
empty 0 -8 0 10 -1 -262144 -1 0 256;
#X obj 120 168 nbx 4 12 -1e+37 1e+37 0 0 \$0-offsetY_gui \$0-offsetY_gui_set
empty 0 -8 0 10 -1 -262144 -1 0 256;
#X obj 70 152 cnv 15 65 15 empty empty OFFSET_X_Y 0 8 0 8 -128992 -1
0;
#X obj 252 41 cnv 15 15 15 empty empty FPS 0 8 0 8 -128992 -1 0;
#N canvas 167 60 1145 543 CONTROL_MEMORY 0;
#X obj 51 187 arrast_param \$0 dimen \$0-memo 0 1 9;
#X obj 51 217 arrast_param \$0 master \$0-memo 1 0 9;
#X obj 674 283 loadbang;
#X text 746 317 AGUARDA RODAR MOTOR;
#X obj 490 351 s \$0-memo-load;
#X text 642 352 ENVIA VALORES;
#X obj 674 317 del 20;
#X text 416 19 ** GESTÃO DA MEMÓRIA LOCAL;
#X obj 490 283 r REFRESH_GEMWIN;
#X obj 490 317 t b;
#X obj 51 55 r OSC_BUS;
#X obj 51 89 route output;
#X text 155 56 RECEBE CONTROLES EXTERNOS - OSC;
#X text 186 90 FILTRA CONTROLES DE SAÍDA;
#X obj 729 167 s \$0-dimX_gui_set;
#X obj 923 167 s \$0-dimY_gui_set;
#X text 727 139 PARÂMETROS NÃO SALVOS NA MEMÓRIA;
#X obj 51 247 arrast_param \$0 fps \$0-memo 2 24 9;
#X obj 51 277 arrast_param \$0 cursor \$0-memo 3 1 9;
#X obj 51 307 arrast_param \$0 border \$0-memo 4 1 9;
#X obj 51 337 arrast_param \$0 redBg \$0-memo 5 0 9;
#X obj 51 367 arrast_param \$0 greenBg \$0-memo 6 0 9;
#X obj 51 397 arrast_param \$0 blueBg \$0-memo 7 0 9;
#X obj 51 427 arrast_param \$0 offsetX \$0-memo 8 0 9;
#X obj 51 487 arrast_param \$0 cameraDev \$0-memo 10 0 9;
#X obj 490 241 array define \$0-memo 11;
#X text 488 213 ARRAY DE MEMÓRIA LOCAL - 11 PARÂMETROS;
#X obj 51 457 arrast_param \$0 offsetY \$0-memo 9 0 9;
#X obj 51 123 route dimen master fps cursor border redBg greenBg blueBg
offsetX offsetY cameraDev dimX dimY, f 63;
#X connect 2 0 6 0;
#X connect 6 0 4 0;
#X connect 8 0 9 0;
#X connect 9 0 4 0;
#X connect 10 0 11 0;
#X connect 11 0 28 0;
#X connect 28 0 0 0;
#X connect 28 1 1 0;
#X connect 28 2 17 0;
#X connect 28 3 18 0;
#X connect 28 4 19 0;
#X connect 28 5 20 0;
#X connect 28 6 21 0;
#X connect 28 7 22 0;
#X connect 28 8 23 0;
#X connect 28 9 27 0;
#X connect 28 10 24 0;
#X connect 28 11 14 0;
#X connect 28 12 15 0;
#X restore 340 30 pd CONTROL_MEMORY;
#X obj 243 143 nbx 2 20 0 99 0 0 \$0-cameraDev_gui \$0-cameraDev_gui_set
empty 5 -8 0 12 -1 -262144 -1 0 256;
#X obj 245 127 cnv 15 15 15 empty empty CAMERA 0 8 0 8 -128992 -1 0
;
#X obj 70 34 cnv 15 15 15 empty empty DIMENSION 0 8 0 8 -128992 -1
0;
#N canvas 25 59 1246 616 LINKS 0;
#X msg 631 158 cursor \$1;
#X msg 631 192 border \$1;
#X msg 813 226 offset \$1 \$2;
#X obj 813 192 pack f f;
#X obj 913 158 t b f;
#X msg 631 416 color \$1 \$2 \$3;
#X obj 631 382 pack f f f;
#X obj 745 358 t b f;
#X obj 879 358 t b f;
#X obj 1009 90 r \$0-fps;
#X obj 631 90 r \$0-cursor;
#X obj 43 124 sel 0 1 2 3;
#X msg 43 192 640 480;
#X obj 177 192 pack 640 480;
#X msg 1009 124 frame \$1;
#X msg 446 244 0 \, destroy;
#X obj 1009 193 s MASTER_FPS;
#X msg 43 158 320 240;
#X msg 43 226 1024 768;
#X msg 43 260 1280 720;
#X obj 43 383 s \$0-dimX_gui_set;
#X obj 122 412 s \$0-dimY_gui_set;
#X text 410 62 CRIAÇÃO DA JANELA;
#X obj 256 338 t a;
#X obj 207 124 r \$0-dimY_gui;
#X text 40 62 DIMENSÃO DA JANELA;
#X obj 413 90 r \$0-master;
#X obj 43 90 r \$0-dimen;
#X obj 177 90 r \$0-dimX_gui;
#X obj 1009 159 t a a;
#X text 1006 223 ENVIA FPS PARA INSTÂNCIA LOCAL, f 15;
#X text 1006 62 FRAMES POR SEGUNDO;
#X obj 813 260 t a;
#X obj 813 90 r \$0-offsetX;
#X obj 843 124 r \$0-offsetY;
#X text 811 62 OFFSET;
#X obj 631 324 r \$0-redBg;
#X obj 745 324 r \$0-greenBg;
#X obj 879 324 r \$0-blueBg;
#X obj 631 124 r \$0-border;
#X obj 631 226 t a;
#X text 628 62 CURSOR E BORDA;
#X text 628 296 COR DO FUNDO;
#X obj 413 119 t f f;
#X obj 177 220 spigot;
#X obj 413 148 sel 1 0;
#X msg 43 353 set \$1;
#X msg 123 353 set \$1;
#X obj 207 153 t b f;
#X obj 43 323 unpack;
#X obj 43 294 t l l;
#X obj 43 511 r \$0-cameraDev_gui;
#X obj 43 540 s CAMERA_DEVICE;
#X text 41 463 REPASSA DISPOSITIVO ESCOLHIDO COMO FONTE DA CÂMERA
, f 29;
#X text 207 20 ** CONEXÕES LOCAIS DA INTERFACE E ENVIO DE DADOS DE
CONTROLE DA JANELA DO GEMWIN, f 80;
#X msg 256 244 0 \, destroy \, dimen \$1 \$2 \, title MASTER \, create
\, 1, f 13;
#X obj 631 524 s \$0-gemwinBus;
#X text 784 524 ENVIA CONTROLES PARA JANELA;
#X obj 631 490 t a;
#X obj 631 558 s GEMWIN_BUS;
#X text 764 558 ENVIA CONTROLES PARA ESTÁGIO DE RENDERIZAÇÃO;
#X connect 0 0 40 0;
#X connect 1 0 40 0;
#X connect 2 0 32 0;
#X connect 3 0 2 0;
#X connect 4 0 3 0;
#X connect 4 1 3 1;
#X connect 5 0 58 0;
#X connect 6 0 5 0;
#X connect 7 0 6 0;
#X connect 7 1 6 1;
#X connect 8 0 6 0;
#X connect 8 1 6 2;
#X connect 9 0 14 0;
#X connect 10 0 0 0;
#X connect 11 0 17 0;
#X connect 11 1 12 0;
#X connect 11 2 18 0;
#X connect 11 3 19 0;
#X connect 12 0 50 0;
#X connect 13 0 44 0;
#X connect 14 0 29 0;
#X connect 15 0 23 0;
#X connect 17 0 50 0;
#X connect 18 0 50 0;
#X connect 19 0 50 0;
#X connect 23 0 58 0;
#X connect 24 0 48 0;
#X connect 26 0 43 0;
#X connect 27 0 11 0;
#X connect 28 0 13 0;
#X connect 29 0 16 0;
#X connect 29 1 58 0;
#X connect 32 0 58 0;
#X connect 33 0 3 0;
#X connect 34 0 4 0;
#X connect 36 0 6 0;
#X connect 37 0 7 0;
#X connect 38 0 8 0;
#X connect 39 0 1 0;
#X connect 40 0 58 0;
#X connect 43 0 45 0;
#X connect 43 1 44 1;
#X connect 44 0 55 0;
#X connect 45 0 13 0;
#X connect 45 1 15 0;
#X connect 46 0 20 0;
#X connect 47 0 21 0;
#X connect 48 0 13 0;
#X connect 48 1 13 1;
#X connect 49 0 46 0;
#X connect 49 1 47 0;
#X connect 50 0 49 0;
#X connect 50 1 13 0;
#X connect 51 0 52 0;
#X connect 55 0 23 0;
#X connect 58 0 56 0;
#X connect 58 0 59 0;
#X restore 340 64 pd LINKS;
#X msg 442 132 reset;
#X msg 377 132 print;
#X obj 340 166 gemwin 24;
#X obj 340 98 r \$0-gemwinBus;
#X connect 24 0 26 0;
#X connect 25 0 26 0;
#X connect 27 0 26 0;
#X coords 0 -1 1 1 247 160 2 50 30;
