#N canvas 757 105 553 255 16;
#X obj 50 30 cnv 15 185 62 empty empty CAMERA 71 42 0 12 -228856 -66577
0;
#X obj 52 30 hradio 20 1 0 9 \$0-enableClick \$0-enableClick_set empty
0 -8 0 10 -262144 -1 -1 2;
#X obj 50 30 cnv 15 185 20 \$0-enable \$0-enable_set empty 20 12 0
14 -128992 -262144 0;
#N canvas 640 226 537 266 CHANNEL_COLOR 0;
#X obj 49 71 f \$1;
#X obj 49 107 sel 1 2 3 4;
#X msg 49 144 13;
#X msg 198 144 16;
#X msg 99 144 15;
#X obj 49 35 loadbang;
#X msg 259 144 28;
#X msg 149 144 19;
#X text 173 24 ** DETERMINA COR PADRÃO DO CANAL;
#X obj 49 209 s \$0-channelColor;
#X obj 259 209 s \$0-bgColor;
#X connect 0 0 1 0;
#X connect 1 0 2 0;
#X connect 1 1 4 0;
#X connect 1 2 7 0;
#X connect 1 3 3 0;
#X connect 2 0 9 0;
#X connect 3 0 9 0;
#X connect 4 0 9 0;
#X connect 5 0 0 0;
#X connect 5 0 6 0;
#X connect 6 0 10 0;
#X connect 7 0 9 0;
#X restore 284 200 pd CHANNEL_COLOR;
#N canvas 301 75 777 603 ENABLE_BUTTON 0;
#X obj 48 97 t b;
#X obj 48 188 f;
#X obj 88 188 + 1;
#X obj 48 216 % 2;
#X floatatom 48 269 5 0 0 0 - - -, f 5;
#X obj 106 132 loadbang;
#X obj 206 327 sel 1;
#X obj 325 63 r CH\$1_SELECT;
#X obj 206 427 s CH\$1_SELECT;
#X msg 372 164 0;
#X obj 325 97 sel 3;
#X msg 60 156 0;
#X msg 286 351 0;
#X msg 206 395 3;
#X obj 206 290 s C\$1_ST;
#X obj 206 164 r C\$1_SET_ST;
#X obj 206 544 s SOURCE_BUS;
#X obj 206 471 list prepend sourceChannel\$1;
#X obj 48 303 t f f;
#X obj 286 383 s \$0-render;
#X obj 206 245 t b;
#X obj 206 216 r REFRESH_SOURCE;
#X obj 499 87 r \$0-externalControl;
#X obj 499 164 route enable;
#X text 496 59 RECEBE CONTROLE EXTERNO;
#X text 125 17 ** GERENCIA ESTADO DO BOTÃO PARA HABILITAR UNIDADE
;
#N canvas 675 219 432 284 COLOR 0;
#X obj 44 62 inlet;
#X obj 44 117 sel 0 1;
#X obj 164 141 f 13;
#X msg 164 179 color \$1 0;
#X msg 44 179 color 11 0;
#X text 47 19 ** COR DO BOTÃO HABILITAR UNIDADE;
#X obj 44 228 s \$0-enable_set;
#X obj 201 109 r \$0-channelColor;
#X connect 0 0 1 0;
#X connect 1 0 4 0;
#X connect 1 1 2 0;
#X connect 2 0 3 0;
#X connect 3 0 6 0;
#X connect 4 0 6 0;
#X connect 7 0 2 1;
#X restore 48 390 pd COLOR;
#X obj 48 63 r \$0-enableClick;
#X obj 206 500 list trim;
#X connect 0 0 1 0;
#X connect 1 0 3 0;
#X connect 2 0 1 1;
#X connect 3 0 2 0;
#X connect 3 0 4 0;
#X connect 4 0 14 0;
#X connect 4 0 18 0;
#X connect 5 0 11 0;
#X connect 6 0 13 0;
#X connect 6 1 12 0;
#X connect 7 0 10 0;
#X connect 9 0 1 0;
#X connect 10 1 9 0;
#X connect 11 0 1 0;
#X connect 12 0 19 0;
#X connect 13 0 8 0;
#X connect 13 0 17 0;
#X connect 15 0 1 0;
#X connect 17 0 28 0;
#X connect 18 0 26 0;
#X connect 18 1 6 0;
#X connect 20 0 4 0;
#X connect 21 0 20 0;
#X connect 22 0 23 0;
#X connect 23 0 1 0;
#X connect 27 0 0 0;
#X connect 28 0 16 0;
#X restore 284 98 pd ENABLE_BUTTON;
#N canvas 580 186 633 273 BYPASS_ACTIVE_SLOT 0;
#X obj 46 97 r C\$1_ACTIVE_SLOT;
#X text 44 26 ** RECEBE SLOT ATIVO DOS MÓDULOS DE VÍDEO E IMAGEM
E ENVIA PARA MÓDULOS DE TRANSFORMAÇÃO E EFEITOS, f 50;
#X obj 46 172 spigot;
#X text 121 174 APENAS SE O MÓDULO DA CÂMERA FOR O ATIVO;
#X obj 46 217 s V\$1_ACTIVE_SLOT;
#X text 231 217 USA MESMO CANAL DO VÍDEO PARA ENVIAR;
#X obj 103 141 r \$0-render;
#X connect 0 0 2 0;
#X connect 2 0 4 0;
#X connect 6 0 2 1;
#X restore 284 166 pd BYPASS_ACTIVE_SLOT;
#N canvas 91 124 489 231 AUTOMATION_MANAGER 0;
#X text 169 110 BOTÃO DE HABILITAR UNIDADE;
#X text 43 20 ** GESTÃO LOCAL DA MEMÓRIA DE AUTOMAÇÕES;
#X obj 49 102 r C\$1_ST;
#X obj 49 170 s C\$1_SET_ST;
#X text 48 67 UNIDADES DE AUTOMAÇÃO POR PARÂMETRO;
#X obj 49 136 arrast_automato \$0 enableButton \$1 0 14;
#X connect 2 0 5 0;
#X connect 5 0 3 0;
#X restore 284 132 pd AUTOMATION_MANAGER;
#N canvas 381 180 599 304 EXTERNAL_CONTROL 0;
#X text 213 137 FILTRA POR CANAL;
#X text 183 170 FILTRA POR MÓDULO;
#X obj 48 234 s \$0-externalControl;
#X text 265 235 ENVIA CONTROLES LOCALMENTE;
#X obj 48 136 route channel\$1;
#X obj 48 72 r OSC_BUS;
#X text 43 19 ** ROTEAMENTO DE CONTROLE EXTERNO VIA MENSAGENS OSC;
#X text 153 69 RECEBE OSC DESEMPACOTADO PELO PATCH PRINCIPAL, f 29
;
#X obj 48 170 route camera;
#X connect 4 0 8 0;
#X connect 5 0 4 0;
#X connect 8 0 2 0;
#X restore 284 30 pd EXTERNAL_CONTROL;
#N canvas 95 315 631 346 CAMERA 0;
#X obj 241 66 r CH\$1_SELECT;
#X obj 45 100 tgl 25 0 empty empty empty 17 7 0 10 -262144 -1 -1 0
1;
#X obj 241 100 == 3;
#X obj 45 135 gemhead \$1;
#X text 349 223 LÊ BUFFER COMPARTILHADO;
#X obj 241 134 s \$0-render;
#X obj 45 66 r \$0-render;
#X obj 45 222 pix_buffer_read CAMERA_BUFFER;
#X obj 45 164 t a b;
#X msg 332 188 0;
#X obj 45 281 s CAMERA_OUT_\$1;
#X text 201 16 ** UNIDADE DE CÂMERA;
#X connect 0 0 2 0;
#X connect 1 0 3 0;
#X connect 2 0 5 0;
#X connect 3 0 8 0;
#X connect 6 0 1 0;
#X connect 7 0 10 0;
#X connect 8 0 7 0;
#X connect 8 1 9 0;
#X connect 9 0 7 1;
#X restore 284 64 pd CAMERA;
#X coords 0 -1 1 1 185 62 2 50 30;
