#N canvas 641 221 510 272 16;
#X obj 50 30 cnv 15 185 200 empty empty empty 20 12 0 14 -228856 -66577
0;
#X obj 61 61 hradio 18 1 0 9 \$0-openBrowser \$0-openBrowser_in empty
0 -8 0 10 -262144 -1 -1 4;
#X obj 63 153 hsl 160 8 0 0 0 0 \$0-morto \$0-timeline empty -2 -8
0 10 -1 -262144 -1 0 1;
#X obj 181 110 nbx 4 12 -1e+37 1e+37 0 0 \$0-morto \$0-secDisplay empty
0 -8 0 10 -1 -262144 -1 0 256;
#X obj 63 166 hsl 160 10 1 0 0 0 \$0-speed_gui \$0-speed_gui_set empty
-2 -8 0 10 -262144 -1 -1 7950 1;
#X obj 141 191 bng 25 250 50 0 \$0-stop_gui \$0-stop_gui_set S 8 13
0 18 -143491 -258113 -262144;
#X obj 210 191 vradio 12 1 0 2 \$0-loopMode_gui \$0-loopMode_gui_set
empty 0 -8 0 10 -355 -262144 -262144 0;
#X obj 95 189 bng 12 250 50 0 \$0-rw_gui \$0-rw_gui_set RW 16 6 0 10
-13381 -4034 -1;
#X obj 95 206 tgl 12 0 \$0-inv_gui \$0-inv_gui_set INV 16 6 0 10 -13381
-4034 -1 0 1;
#X obj 139 176 bng 8 250 50 0 \$0-resetSpeed \$0-resetSpeed_in empty
17 7 0 10 -162280 -1 -1;
#X obj 60 61 cnv 15 165 18 \$0-morto \$0-fileDisplay OPEN_VIDEO 5 9
0 12 -355 -262144 0;
#X text 97 170 ';
#X text 177 170 ';
#N canvas 314 221 692 141 select_slot 0;
#X obj 105 53 bng 15 250 50 0 \$0-clickSlot1 \$0-clickSlot1_set empty
17 7 0 10 -262144 -1 -1;
#X msg 500 53 color \$1;
#N canvas 112 192 411 304 BROWSE_FILE 0;
#X obj 44 121 t b;
#X obj 44 187 openpanel;
#X obj 44 155 symbol Videos/;
#X obj 44 234 s \$0-slotFileIn;
#X obj 44 91 r \$0-openBrowser;
#X text 210 234 ENVIA PARA SLOTS;
#X text 50 21 ** CHAMA JANELA DE ABERTURA DE ARQUIVO A PARTIR DA INTERFACE
, f 30;
#X connect 0 0 2 0;
#X connect 1 0 3 0;
#X connect 2 0 1 0;
#X connect 4 0 0 0;
#X restore 304 53 pd BROWSE_FILE;
#X obj 500 21 r \$0-bgColor;
#X obj 500 84 s \$0-slotsBG;
#X obj 125 53 bng 15 250 50 0 \$0-clickSlot2 \$0-clickSlot2_set empty
17 7 0 10 -262144 -1 -1;
#X obj 145 53 bng 15 250 50 0 \$0-clickSlot3 \$0-clickSlot3_set empty
17 7 0 10 -262144 -1 -1;
#X obj 165 53 bng 15 250 50 0 \$0-clickSlot4 \$0-clickSlot4_set empty
17 7 0 10 -262144 -1 -1;
#X obj 185 53 bng 15 250 50 0 \$0-clickSlot5 \$0-clickSlot5_set empty
17 7 0 10 -262144 -1 -1;
#X obj 205 53 bng 15 250 50 0 \$0-clickSlot6 \$0-clickSlot6_set empty
17 7 0 10 -262144 -1 -1;
#X obj 225 53 bng 15 250 50 0 \$0-clickSlot7 \$0-clickSlot7_set empty
17 7 0 10 -262144 -1 -1;
#X obj 245 53 bng 15 250 50 0 \$0-clickSlot8 \$0-clickSlot8_set empty
17 7 0 10 -262144 -1 -1;
#X obj 100 50 cnv 15 165 21 empty \$0-slotsBG empty 20 12 0 14 -355
-262144 0;
#X obj 105 53 cnv 15 15 15 empty \$0-colorSlot1 1 4 8 0 12 -24198 -1
0;
#X obj 125 53 cnv 15 15 15 empty \$0-colorSlot2 2 4 8 0 12 -262144
-1 0;
#X obj 145 53 cnv 15 15 15 empty \$0-colorSlot3 3 4 8 0 12 -262144
-1 0;
#X obj 165 53 cnv 15 15 15 empty \$0-colorSlot4 4 4 8 0 12 -262144
-1 0;
#X obj 185 53 cnv 15 15 15 empty \$0-colorSlot5 5 4 8 0 12 -262144
-1 0;
#X obj 205 53 cnv 15 15 15 empty \$0-colorSlot6 6 4 8 0 12 -262144
-1 0;
#X obj 225 53 cnv 15 15 15 empty \$0-colorSlot7 7 4 8 0 12 -262144
-1 0;
#X obj 245 53 cnv 15 15 15 empty \$0-colorSlot8 8 4 8 0 12 -262144
-1 0;
#N canvas 49 128 663 307 FILE_DISPLAY 0;
#X msg 221 206 label \$1;
#X msg 47 206 color \$1;
#X obj 434 177 loadbang;
#X obj 221 177 arrast_namecut 22;
#X obj 144 66 r \$0-activeFile;
#X obj 144 100 sel none;
#X obj 47 177 r \$0-bgColor;
#X msg 434 206 label OPEN_VIDEO;
#X text 238 103 FILTRA SLOTS VAZIOS;
#X text 44 149 COR DE FUNDO;
#X text 308 67 RECEBE ARQUIVO ATIVO;
#X text 48 21 ** GERENCIA CONTEÚDO EXIBIDO NO VISOR DE NOME DO ARQUIVO
;
#X obj 221 252 s \$0-fileDisplay;
#X connect 0 0 12 0;
#X connect 1 0 12 0;
#X connect 2 0 7 0;
#X connect 3 0 0 0;
#X connect 4 0 5 0;
#X connect 5 0 7 0;
#X connect 5 1 3 0;
#X connect 6 0 1 0;
#X connect 7 0 12 0;
#X restore 304 84 pd FILE_DISPLAY;
#N canvas 58 173 1253 453 ACTIVE_SLOT 0;
#X msg 18 277 1;
#X msg 188 277 2;
#X msg 358 277 3;
#X msg 528 277 4;
#X msg 698 277 5;
#X msg 868 277 6;
#X msg 1038 277 7;
#X msg 1208 277 8;
#X obj 18 120 loadbang;
#X obj 616 337 f 1;
#X obj 18 149 del 5;
#X obj 616 89 r \$0-flushActiveSlot;
#X obj 616 397 s \$0-activeSlot;
#X text 830 90 ATUALIZA SLOT ATIVO;
#X obj 696 133 r \$0-activeSlot_gui_set;
#X text 941 133 RECEBE DO GESTOR DE PRESETS E DA AUTOMAÇÃO;
#X obj 616 206 int;
#X text 186 218 CLIQUES NO SELETOR DE SLOTS;
#X obj 1208 246 r \$0-clickSlot8;
#X obj 1038 246 r \$0-clickSlot7;
#X obj 868 246 r \$0-clickSlot6;
#X obj 698 246 r \$0-clickSlot5;
#X obj 528 246 r \$0-clickSlot4;
#X obj 358 246 r \$0-clickSlot3;
#X obj 188 246 r \$0-clickSlot2;
#X obj 18 246 r \$0-clickSlot1;
#X obj 616 123 t b;
#X obj 616 55 r REFRESH_ACTIVE_SLOT;
#X text 211 14 ** GERENCIA MUDANÇA DE SLOT ATIVO PELA INTERFACE \,
PRESETS E CONTROLE EXTERNO OSC, f 80;
#X obj 374 89 r \$0-externalControl;
#X text 371 61 CONTROLE EXTERNO;
#X obj 374 123 route activeSlot;
#X obj 616 177 clip 1 8;
#X connect 0 0 9 0;
#X connect 1 0 9 0;
#X connect 2 0 9 0;
#X connect 3 0 9 0;
#X connect 4 0 9 0;
#X connect 5 0 9 0;
#X connect 6 0 9 0;
#X connect 7 0 9 0;
#X connect 8 0 10 0;
#X connect 9 0 12 0;
#X connect 10 0 0 0;
#X connect 11 0 26 0;
#X connect 14 0 32 0;
#X connect 16 0 9 0;
#X connect 18 0 7 0;
#X connect 19 0 6 0;
#X connect 20 0 5 0;
#X connect 21 0 4 0;
#X connect 22 0 3 0;
#X connect 23 0 2 0;
#X connect 24 0 1 0;
#X connect 25 0 0 0;
#X connect 26 0 9 0;
#X connect 27 0 26 0;
#X connect 29 0 31 0;
#X connect 31 0 32 0;
#X connect 32 0 16 0;
#X restore 304 22 pd ACTIVE_SLOT;
#X connect 1 0 4 0;
#X connect 3 0 1 0;
#X coords 0 -1 1 1 165 21 2 100 50;
#X restore 60 79 pd select_slot;
#X obj 52 30 hradio 20 1 0 9 \$0-enableClick \$0-enableClick_set empty
0 -8 0 10 -262144 -1 -1 4;
#X obj 50 30 cnv 15 185 20 \$0-enable \$0-enable_set empty 20 12 0
14 -24198 -262144 0;
#X obj 63 128 hsl 160 10 0 1 0 0 \$0-inSet_gui \$0-inSet_gui_set empty
-2 -8 0 10 -262144 -1 -1 0 1;
#X obj 63 138 hsl 160 10 0 1 0 0 \$0-outSet_gui \$0-outSet_gui_set
empty -2 -8 0 10 -262144 -1 -1 15900 1;
#N canvas 107 87 1172 641 VIDEO_UNIT 0;
#X obj 667 198 f;
#X obj 711 198 + 1;
#X obj 667 232 mod 1;
#X floatatom 794 123 8 0 0 0 - - -, f 8;
#X obj 784 208 r \$0-modulo;
#X obj 667 154 metro 41.6667;
#X floatatom 667 544 5 0 0 0 - - -, f 5;
#X obj 667 119 tgl 25 0 empty empty empty 17 7 0 10 -204786 -1 -1 0
1;
#X obj 667 85 r \$0-motor;
#X text 727 543 CURSOR;
#X obj 667 585 s \$0-cursor;
#N canvas 102 200 624 454 SPEED 0;
#X msg 45 133 1000 \$1;
#X obj 45 165 /;
#X obj 45 404 outlet;
#X obj 45 101 r MASTER_FPS;
#X obj 45 216 f;
#X obj 45 255 * 1;
#X obj 212 102 r \$0-speed;
#X obj 212 162 clip 0.01 2;
#X obj 212 132 * 2;
#X obj 45 331 t f f;
#X obj 279 251 s \$0-audioSpeed;
#X obj 212 192 t b f f;
#X text 276 283 ENVIA VELOCIDADE DE REPRODUÇÃO PARA ÁUDIO, f 21
;
#X msg 398 150 0.5;
#X text 396 213 RESETA VELOCIDADE;
#X obj 398 180 s \$0-speed_gui_set;
#X text 285 356 DURAÇÃO DE 1 FRAME EM MSEC;
#X obj 142 355 s \$0-frameDur;
#X obj 398 121 r \$0-resetSpeed;
#X text 125 21 ** CALCULA VELOCIDADE DE REPRODUÇÃO;
#X text 42 73 RECEBE FPS;
#X text 210 73 CONTROLE DA INTERFACE;
#X connect 0 0 1 0;
#X connect 1 0 4 0;
#X connect 3 0 0 0;
#X connect 4 0 5 0;
#X connect 5 0 9 0;
#X connect 6 0 8 0;
#X connect 7 0 11 0;
#X connect 8 0 7 0;
#X connect 9 0 2 0;
#X connect 9 1 17 0;
#X connect 11 0 4 0;
#X connect 11 1 5 1;
#X connect 11 2 10 0;
#X connect 13 0 15 0;
#X connect 18 0 13 0;
#X restore 794 89 pd SPEED;
#N canvas 526 58 768 705 LOOPMODE 0;
#X obj 56 57 inlet;
#X obj 56 626 outlet;
#X obj 133 489 t f f;
#X obj 247 561 spigot;
#X obj 56 561 spigot 1;
#X obj 429 259 spigot;
#X obj 247 259 spigot 1;
#X obj 324 229 == 0;
#X obj 429 147 - 1;
#X obj 214 113 t f f f;
#X obj 133 527 == 0;
#X obj 133 425 t f b;
#N canvas 576 184 602 481 ALTERNATE 0;
#X obj 48 346 f;
#X obj 92 346 + 1;
#X obj 48 380 % 2;
#X obj 48 30 inlet;
#X obj 48 424 outlet;
#X obj 48 252 sel 1;
#X text 152 20 ** ALTERNADOR PARA INVERTER DIREÇÃO NO LOOP MODO 1
, f 35;
#X msg 159 322 0;
#X text 304 294 RESETA ALTERNADOR;
#X obj 95 137 r \$0-modulo;
#X obj 95 196 spigot;
#X obj 257 113 sel 0 1;
#X obj 257 142 t b b;
#X msg 304 172 1;
#X obj 95 166 f;
#X obj 357 142 t b b;
#X msg 404 172 0;
#X msg 357 172 1;
#X text 115 253 PONTO DE LOOP - IN<OUT = MODULO / IN>OUT = 1;
#X obj 95 224 f;
#X obj 159 293 r \$0-altReset;
#X obj 257 84 r \$0-ioInv;
#X connect 0 0 2 0;
#X connect 1 0 0 1;
#X connect 2 0 1 0;
#X connect 2 0 4 0;
#X connect 3 0 5 0;
#X connect 5 0 0 0;
#X connect 7 0 0 0;
#X connect 9 0 14 0;
#X connect 10 0 19 0;
#X connect 11 0 12 0;
#X connect 11 1 15 0;
#X connect 12 0 14 0;
#X connect 12 1 13 0;
#X connect 13 0 10 1;
#X connect 14 0 10 0;
#X connect 15 0 17 0;
#X connect 15 1 16 0;
#X connect 16 0 10 1;
#X connect 17 0 19 0;
#X connect 19 0 5 1;
#X connect 20 0 7 0;
#X connect 21 0 11 0;
#X restore 214 155 pd ALTERNATE;
#X obj 133 366 r \$0-loopMode;
#X text 474 148 CALCULA CURSOR INVERTIDO;
#X text 340 260 NORMAL;
#X text 501 260 INVERTIDO;
#X text 132 627 SAÍDA DO CURSOR NO MODO DE LOOP ESCOLHIDO;
#X obj 133 395 change;
#X obj 214 187 t f f;
#X obj 456 115 r \$0-modulo;
#X obj 247 303 change;
#X obj 429 176 abs;
#X obj 429 205 + 1;
#X text 144 17 ** GERENCIA MODO DE LOOP \, NORMAL OU IDA-VOLTA;
#X obj 56 89 t f f;
#X text 150 562 MODO 0;
#X text 320 562 MODO 1;
#X obj 180 457 s \$0-altReset;
#X connect 0 0 25 0;
#X connect 2 0 10 0;
#X connect 2 1 3 1;
#X connect 3 0 1 0;
#X connect 4 0 1 0;
#X connect 5 0 21 0;
#X connect 6 0 21 0;
#X connect 7 0 6 1;
#X connect 8 0 22 0;
#X connect 9 0 12 0;
#X connect 9 1 6 0;
#X connect 9 2 8 0;
#X connect 10 0 4 1;
#X connect 11 0 2 0;
#X connect 11 1 28 0;
#X connect 12 0 19 0;
#X connect 13 0 18 0;
#X connect 18 0 11 0;
#X connect 19 0 7 0;
#X connect 19 1 5 1;
#X connect 20 0 8 1;
#X connect 21 0 3 0;
#X connect 22 0 23 0;
#X connect 23 0 5 0;
#X connect 25 0 4 0;
#X connect 25 1 9 0;
#X restore 667 398 pd LOOPMODE;
#N canvas 106 260 583 396 INVERT 0;
#X obj 40 77 inlet;
#X obj 207 77 r \$0-inv;
#X obj 40 154 spigot;
#X obj 150 154 spigot;
#X obj 97 116 == 0;
#X obj 40 337 outlet;
#X obj 150 230 - 1;
#X text 195 231 CALCULA CURSOR INVERTIDO;
#X obj 177 198 r \$0-modulo;
#X obj 150 259 abs;
#X obj 150 288 + 1;
#X text 41 29 ** INVERSOR DO VÍDEO A PARTIR DO BOTÃO DA INTERFACE
;
#X connect 0 0 2 0;
#X connect 0 0 3 0;
#X connect 1 0 4 0;
#X connect 1 0 3 1;
#X connect 2 0 5 0;
#X connect 3 0 6 0;
#X connect 4 0 2 1;
#X connect 6 0 9 0;
#X connect 8 0 6 1;
#X connect 9 0 10 0;
#X connect 10 0 5 0;
#X restore 667 432 pd INVERT;
#N canvas 232 225 297 244 CLIP 0;
#X obj 46 39 inlet;
#X obj 46 179 outlet;
#X obj 46 124 clip 1 100;
#X obj 143 69 r \$0-frames;
#X obj 143 96 - 1;
#X connect 0 0 2 0;
#X connect 2 0 1 0;
#X connect 3 0 4 0;
#X connect 4 0 2 2;
#X restore 667 500 pd CLIP;
#N canvas 94 440 796 185 STOP 0;
#X msg 176 94 0;
#X obj 176 128 s \$0-motor;
#X msg 300 94 0;
#X obj 42 128 s \$0-gotoIn;
#X obj 434 128 s \$0-altReset;
#X obj 42 36 r \$0-stop_gui;
#X obj 588 128 s \$0-play_gui_set;
#X msg 588 94 0;
#X obj 42 70 t b b b b b;
#X text 260 15 ** AÇÕES DO BOTÃO STOP;
#X obj 300 128 s \$0-render;
#X connect 0 0 1 0;
#X connect 2 0 10 0;
#X connect 5 0 8 0;
#X connect 7 0 6 0;
#X connect 8 0 3 0;
#X connect 8 1 0 0;
#X connect 8 2 2 0;
#X connect 8 3 4 0;
#X connect 8 4 7 0;
#X restore 960 187 pd STOP;
#N canvas 192 392 402 203 TIMELINE 0;
#X msg 197 116 range 0 \$1;
#X obj 197 75 r \$0-frames;
#X obj 42 75 r \$0-cursor;
#X obj 42 140 s \$0-timeline;
#X text 37 26 ** GERENCIA EXIBIÇÃO DA TIMELINE;
#X connect 0 0 3 0;
#X connect 1 0 0 0;
#X connect 2 0 3 0;
#X restore 960 265 pd TIMELINE;
#N canvas 324 124 586 476 TIME 0;
#X obj 44 279 *;
#X obj 44 313 / 1000;
#X obj 60 245 t b f;
#X msg 169 365 0;
#X text 195 29 ** CALCULA TEMPO DE REPRODUÇÃO DO MÓDULO E ENVIA
PARA VISOR, f 33;
#X text 264 296 ATUALIZA VALOR DO VISOR DE TEMPO PRA "0" CASO SLOT
ATIVO ESTEJA VAZIO, f 23;
#X obj 169 331 del 5;
#X obj 60 211 r \$0-frameDur;
#X text 208 410 PARA VISOR DE TEMPO NA INTERFACE;
#X obj 169 263 r \$0-activeFile;
#X obj 169 297 sel none;
#X obj 44 133 -;
#X obj 82 109 t b f;
#X obj 44 167 abs;
#X obj 44 41 r \$0-in;
#X obj 82 75 r \$0-out;
#X text 88 168 MÓDULO EM FRAMES;
#X text 205 212 DURAÇÃO DE 1 FRAME EM MSEG;
#X obj 44 409 s \$0-secDisplay;
#X connect 0 0 1 0;
#X connect 1 0 18 0;
#X connect 2 0 0 0;
#X connect 2 1 0 1;
#X connect 3 0 18 0;
#X connect 6 0 3 0;
#X connect 7 0 2 0;
#X connect 9 0 10 0;
#X connect 10 0 6 0;
#X connect 11 0 13 0;
#X connect 12 0 11 0;
#X connect 12 1 11 1;
#X connect 13 0 0 0;
#X connect 14 0 11 0;
#X connect 15 0 12 0;
#X restore 961 299 pd TIME;
#N canvas 201 259 994 303 TO_FADE 0;
#X obj 210 88 r \$0-cursor;
#X obj 410 88 r \$0-frames;
#X obj 610 88 r \$0-modulo;
#X obj 810 88 r \$0-offset;
#X obj 210 138 list prepend cursor;
#X obj 410 138 list prepend frames;
#X obj 610 138 list prepend modulo;
#X obj 810 138 list prepend offset;
#X obj 410 247 s V\$1_TO_FADE;
#X obj 410 217 list trim;
#X obj 1230 88 r \$0-loopMode;
#X obj 1230 138 list prepend loopMode;
#X obj 1010 88 r \$0-frameDur;
#X obj 1010 138 list prepend frameDur;
#X obj 20 138 list prepend motor;
#X obj 20 88 r \$0-motor;
#X text 207 20 ** ENVIA INFORMAÇÕES NECESSÁRIAS DO VÍDEO PARA O
MÓDULO DE FADE IN E FADE OUT \, NO [arrast_transf];
#X connect 0 0 4 0;
#X connect 1 0 5 0;
#X connect 2 0 6 0;
#X connect 3 0 7 0;
#X connect 4 0 9 0;
#X connect 5 0 9 0;
#X connect 6 0 9 0;
#X connect 7 0 9 0;
#X connect 9 0 8 0;
#X connect 10 0 11 0;
#X connect 11 0 9 0;
#X connect 12 0 13 0;
#X connect 13 0 9 0;
#X connect 14 0 9 0;
#X connect 15 0 14 0;
#X restore 961 333 pd TO_FADE;
#X obj 784 324 s \$0-rawCursor;
#X obj 667 466 +;
#X obj 784 442 r \$0-offset;
#N canvas 127 62 668 701 IO_INVERT 0;
#X obj 219 184 -;
#X obj 257 150 t b f;
#X obj 52 33 inlet;
#X obj 52 567 spigot;
#X obj 162 567 spigot;
#X obj 109 535 == 0;
#X obj 219 213 moses 0;
#X obj 219 92 r \$0-out;
#X obj 257 121 r \$0-in;
#X msg 219 242 1;
#X msg 286 242 0;
#X text 150 26 ** INVERTE CURSOR SE PONTO DE ENTRADA FOR DEPOIS DO
PONTO DE SAÍDA DO VÍDEO, f 37;
#X obj 219 511 t f;
#X obj 162 644 - 1;
#X text 207 645 CALCULA CURSOR INVERTIDO;
#X obj 189 612 r \$0-modulo;
#X obj 162 673 abs;
#X obj 162 702 + 1;
#X obj 52 777 outlet;
#X obj 52 737 change;
#X text 262 541 ENVIA PARA ALTERNADOR DO LOOP MODO 1;
#X obj 219 345 spigot;
#X obj 276 275 r \$0-ioMode;
#X obj 219 275 t f f;
#X obj 239 474 f;
#X obj 239 381 r \$0-hardSync;
#X obj 239 443 spigot;
#X obj 296 413 == 0;
#X obj 276 315 t f f;
#X obj 261 567 s \$0-ioInv;
#X text 393 328 NO IO_MODE 0 SÓ PASSA INVERSÃO NO INÍCIO DO MÓDULO
, f 21;
#X connect 0 0 6 0;
#X connect 1 0 0 0;
#X connect 1 1 0 1;
#X connect 2 0 3 0;
#X connect 2 0 4 0;
#X connect 3 0 19 0;
#X connect 4 0 13 0;
#X connect 5 0 3 1;
#X connect 6 0 9 0;
#X connect 6 1 10 0;
#X connect 7 0 0 0;
#X connect 8 0 1 0;
#X connect 9 0 23 0;
#X connect 10 0 23 0;
#X connect 12 0 5 0;
#X connect 12 0 4 1;
#X connect 12 0 29 0;
#X connect 13 0 16 0;
#X connect 15 0 13 1;
#X connect 16 0 17 0;
#X connect 17 0 19 0;
#X connect 19 0 18 0;
#X connect 21 0 12 0;
#X connect 22 0 28 0;
#X connect 23 0 21 0;
#X connect 23 1 24 1;
#X connect 24 0 12 0;
#X connect 25 0 26 0;
#X connect 26 0 24 0;
#X connect 27 0 26 1;
#X connect 28 0 21 1;
#X connect 28 1 27 0;
#X restore 667 364 pd IO_INVERT;
#X msg 531 174 0;
#X obj 667 300 + 1;
#N canvas 23 63 381 306 HARDSYNC 0;
#X obj 97 184 s \$0-hardSync;
#X obj 50 118 sel 0;
#X obj 50 154 t f b;
#X obj 50 82 inlet;
#X obj 50 253 outlet;
#X text 117 116 TODOS NÚMEROS MENOS 0 PASSAM DIRETO, f 21;
#X text 46 21 ** ENVIA SINAL DE SINCRONIA NO INÍCIO DO MÓDULO, f
27;
#X connect 1 0 2 0;
#X connect 1 1 4 0;
#X connect 2 0 4 0;
#X connect 2 1 0 0;
#X connect 3 0 1 0;
#X restore 667 266 pd HARDSYNC;
#X obj 531 140 r \$0-gotoIn;
#N canvas 322 119 674 638 MODULO_OFFSET 0;
#X obj 414 428 <;
#X floatatom 414 459 5 0 0 0 - - -, f 5;
#X obj 414 397 t f f;
#X obj 484 397 t f f;
#X obj 504 518 f;
#X obj 414 518 f;
#X obj 414 487 sel 1 0;
#X floatatom 414 548 5 0 0 0 - - -, f 5;
#X obj 414 580 s \$0-offset;
#X obj 57 228 -;
#X obj 95 204 t b f;
#X floatatom 57 518 5 0 0 0 - - -, f 5;
#X obj 124 580 s \$0-modulo;
#X obj 414 367 f;
#X obj 484 367 f;
#X obj 57 546 t b b f;
#X obj 95 170 t f f;
#X obj 57 102 t f f;
#X obj 57 68 r \$0-in;
#X obj 95 136 r \$0-out;
#X obj 57 356 spigot;
#X obj 124 296 r \$0-ioMode;
#X obj 57 296 t f f;
#X obj 77 483 f;
#X obj 77 452 spigot;
#X obj 134 422 == 0;
#X obj 124 326 t f f;
#X obj 77 391 r \$0-hardSync;
#X text 247 293 IO MODE - 0 = NO INÍCIO DO MÓDULO (SEM GLITCH) \,
1 = DIRETO (GLITCH), f 33;
#X text 27 20 ** CALCULA MÓDULO E OFFSET EM FRAMES PARA REPRODUÇÃO
DO VÍDEO, f 61;
#X obj 57 257 abs;
#X obj 235 400 r \$0-activeSlot;
#X obj 235 459 t b;
#X text 233 487 FORÇA ENVIO QUANDO MUDA SLOT, f 11;
#X obj 235 429 del 5;
#X connect 0 0 1 0;
#X connect 1 0 6 0;
#X connect 2 0 0 0;
#X connect 2 1 5 1;
#X connect 3 0 0 1;
#X connect 3 1 4 1;
#X connect 4 0 7 0;
#X connect 5 0 7 0;
#X connect 6 0 5 0;
#X connect 6 1 4 0;
#X connect 7 0 8 0;
#X connect 9 0 30 0;
#X connect 10 0 9 0;
#X connect 10 1 9 1;
#X connect 11 0 15 0;
#X connect 13 0 2 0;
#X connect 14 0 3 0;
#X connect 15 0 13 0;
#X connect 15 1 14 0;
#X connect 15 2 12 0;
#X connect 16 0 10 0;
#X connect 16 1 14 1;
#X connect 17 0 9 0;
#X connect 17 1 13 1;
#X connect 18 0 17 0;
#X connect 19 0 16 0;
#X connect 20 0 11 0;
#X connect 21 0 26 0;
#X connect 22 0 20 0;
#X connect 22 1 23 1;
#X connect 23 0 11 0;
#X connect 24 0 23 0;
#X connect 25 0 24 1;
#X connect 26 0 20 1;
#X connect 26 1 25 0;
#X connect 27 0 24 0;
#X connect 30 0 22 0;
#X connect 31 0 34 0;
#X connect 32 0 23 0;
#X connect 34 0 32 0;
#X restore 960 119 pd MODULO_OFFSET;
#N canvas 59 115 1086 435 PLAY_PAUSE_RW 0;
#X obj 167 371 s \$0-motor;
#X msg 167 337 1;
#X obj 48 63 r \$0-play;
#X obj 413 178 s \$0-motor;
#X msg 413 145 0;
#X obj 167 121 sel 1 0;
#X obj 48 97 t f f;
#N canvas 523 268 402 289 COLOR 0;
#X obj 45 41 inlet;
#X obj 45 96 sel 0 1;
#X msg 45 156 color 26 26 0;
#X msg 205 156 color 16 16 22;
#X obj 45 207 s \$0-play_gui_set;
#X connect 0 0 1 0;
#X connect 1 0 2 0;
#X connect 1 1 3 0;
#X connect 2 0 4 0;
#X connect 3 0 4 0;
#X restore 48 159 pd COLOR;
#X obj 291 371 s \$0-ioFlush;
#X obj 620 204 r \$0-rw_gui;
#X obj 620 272 s \$0-gotoIn;
#X obj 667 306 s \$0-altReset;
#X obj 620 238 t b b;
#X obj 620 63 r \$0-activeSlot;
#X text 783 59 VAI PRO INÍCIO QUANDO MUDA SLOT, f 16;
#X obj 620 97 t b;
#X obj 630 141 r AUTO_RW;
#X text 733 141 SINCRONIZA COM RW DA AUTOMAÇÃO;
#X text 744 205 BOTÃO DE RW;
#X text 151 63 BOTÃO PLAY/PAUSE;
#X text 333 17 ** AÇÕES DOS BOTÕES PLAY/PAUSE E RW;
#X obj 224 191 r \$0-slotState;
#X obj 167 225 spigot;
#X text 241 224 IMPEDE COMANDOS SE SLOT ESTIVER VAZIO, f 18;
#X msg 435 337 1;
#X obj 435 371 s \$0-render;
#X obj 492 269 r V\$1_ST;
#X obj 435 303 spigot;
#X obj 167 279 t b b b;
#X text 559 372 AÇÕES QUANDO LIGA PLAY;
#X text 456 145 PAUSE;
#X connect 1 0 0 0;
#X connect 2 0 6 0;
#X connect 4 0 3 0;
#X connect 5 0 22 0;
#X connect 5 1 4 0;
#X connect 6 0 7 0;
#X connect 6 1 5 0;
#X connect 9 0 12 0;
#X connect 12 0 10 0;
#X connect 12 1 11 0;
#X connect 13 0 15 0;
#X connect 15 0 12 0;
#X connect 16 0 12 0;
#X connect 21 0 22 1;
#X connect 22 0 28 0;
#X connect 24 0 25 0;
#X connect 26 0 27 1;
#X connect 27 0 24 0;
#X connect 28 0 1 0;
#X connect 28 1 8 0;
#X connect 28 2 27 0;
#X restore 960 153 pd PLAY_PAUSE_RW;
#N canvas 693 79 646 444 IN_OUT 0;
#X obj 49 297 *;
#X obj 49 327 int;
#X floatatom 49 357 5 0 0 0 - - -, f 5;
#X obj 348 82 r \$0-ioFlush;
#X obj 49 82 r \$0-inSet;
#X obj 49 385 s \$0-in;
#X obj 238 242 r \$0-frames;
#X obj 186 297 *;
#X obj 186 327 int;
#X floatatom 186 357 5 0 0 0 - - -, f 5;
#X obj 186 82 r \$0-outSet;
#X obj 186 385 s \$0-out;
#X text 46 19 ** CALCULA POSIÇÃO DO INÍCIO E FIM DA REPRODUÇÃO
EM FRAMES, f 48;
#X obj 348 113 t b b;
#X obj 238 273 t b f b f;
#X text 346 142 ATUALIZA PONTOS DE LEITURA;
#X floatatom 186 111 5 0 0 0 - - -, f 5;
#X floatatom 49 111 5 0 0 0 - - -, f 5;
#N canvas 516 94 841 620 IN_OUT_LINK 0;
#X obj 505 461 +;
#X obj 155 461 -;
#X obj 581 379 -;
#X obj 581 408 * -1;
#X obj 581 437 t f f;
#X obj 581 345 t b f;
#X text 251 16 ** FIXA INTERVALO DE REPRODUÇÃO;
#X text 625 380 CALCULA INTERVALO;
#X obj 91 292 spigot;
#X obj 148 262 == 0;
#X obj 432 292 spigot;
#X obj 489 262 == 0;
#X obj 432 321 t f f;
#X obj 91 321 t f f;
#X obj 44 195 spigot;
#X obj 385 195 spigot;
#X obj 552 562 s \$0-outSet_gui;
#X obj 202 562 s \$0-inSet_gui;
#X msg 101 171 0;
#X msg 141 171 1;
#X msg 442 171 0;
#X msg 482 171 1;
#X obj 385 229 t b f b f;
#X obj 44 229 t b f b f;
#X obj 155 495 clip 0 1;
#X obj 505 495 clip 0 1;
#X obj 505 529 t f f;
#X obj 155 529 t f f;
#X obj 44 61 inlet IN;
#X obj 385 61 inlet OUT;
#X obj 91 572 outlet IN;
#X obj 432 572 outlet OUT;
#X text 550 56 RECEBE CONTROLE DA INTERFACE, f 15;
#X text 187 167 PREVINE STACK OVERFLOW, f 13;
#X obj 44 125 t f f;
#X obj 385 125 t f f;
#X obj 44 90 f;
#X obj 385 90 f;
#X obj 552 104 r \$0-ioLink_gui;
#X obj 619 171 t f f f f;
#X obj 552 133 t b b f;
#X obj 726 118 loadbang;
#X msg 726 147 0;
#X connect 0 0 25 0;
#X connect 1 0 24 0;
#X connect 2 0 3 0;
#X connect 3 0 4 0;
#X connect 4 0 1 1;
#X connect 4 1 0 1;
#X connect 5 0 2 0;
#X connect 5 1 2 1;
#X connect 8 0 13 0;
#X connect 9 0 8 1;
#X connect 10 0 12 0;
#X connect 11 0 10 1;
#X connect 12 0 31 0;
#X connect 12 1 5 0;
#X connect 13 0 30 0;
#X connect 13 1 2 0;
#X connect 14 0 23 0;
#X connect 15 0 22 0;
#X connect 18 0 14 1;
#X connect 19 0 14 1;
#X connect 20 0 15 1;
#X connect 21 0 15 1;
#X connect 22 0 19 0;
#X connect 22 1 1 0;
#X connect 22 2 18 0;
#X connect 22 3 31 0;
#X connect 23 0 21 0;
#X connect 23 1 0 0;
#X connect 23 2 20 0;
#X connect 23 3 30 0;
#X connect 24 0 27 0;
#X connect 25 0 26 0;
#X connect 26 0 31 0;
#X connect 26 1 16 0;
#X connect 27 0 30 0;
#X connect 27 1 17 0;
#X connect 28 0 36 0;
#X connect 29 0 37 0;
#X connect 34 0 14 0;
#X connect 34 1 8 0;
#X connect 35 0 15 0;
#X connect 35 1 10 0;
#X connect 36 0 34 0;
#X connect 37 0 35 0;
#X connect 38 0 40 0;
#X connect 39 0 14 1;
#X connect 39 1 9 0;
#X connect 39 2 15 1;
#X connect 39 3 11 0;
#X connect 40 0 36 0;
#X connect 40 1 37 0;
#X connect 40 2 39 0;
#X connect 41 0 42 0;
#X connect 42 0 39 0;
#X restore 49 193 pd IN_OUT_LINK;
#X text 203 194 FIXA INTERVALO DE REPRODUÇÃO;
#X obj 186 137 f;
#X obj 49 137 f;
#X connect 0 0 1 0;
#X connect 1 0 2 0;
#X connect 2 0 5 0;
#X connect 3 0 13 0;
#X connect 4 0 17 0;
#X connect 6 0 14 0;
#X connect 7 0 8 0;
#X connect 8 0 9 0;
#X connect 9 0 11 0;
#X connect 10 0 16 0;
#X connect 13 0 21 0;
#X connect 13 1 20 0;
#X connect 14 0 0 0;
#X connect 14 1 0 1;
#X connect 14 2 7 0;
#X connect 14 3 7 1;
#X connect 16 0 20 0;
#X connect 17 0 21 0;
#X connect 18 0 0 0;
#X connect 18 1 7 0;
#X connect 20 0 18 1;
#X connect 21 0 18 0;
#X restore 960 85 pd IN_OUT;
#X text 464 14 ** UNIDADE DE VÍDEO;
#X obj 332 83 r CH\$1_SELECT;
#X obj 332 117 == 1;
#N canvas 246 213 526 221 SEND_FRAMES 0;
#X obj 48 43 inlet;
#X obj 48 80 unpack f f f;
#X floatatom 48 118 5 0 0 0 - - -, f 5;
#X obj 48 151 s \$0-frames;
#X text 130 33 ** ENVIA DURAÇÃO DO VÍDEO EM FRAMES;
#X connect 0 0 1 0;
#X connect 1 0 2 0;
#X connect 2 0 3 0;
#X restore 83 382 pd SEND_FRAMES;
#X text 330 54 ESTADO DA UNIDADE;
#X obj 45 348 pix_film;
#X obj 122 284 r \$0-cursor;
#X floatatom 122 316 5 0 0 0 - - -, f 5;
#X msg 68 230 open \$1 \, auto 0;
#X obj 45 152 gemhead \$1;
#X obj 199 60 loadbang;
#X obj 45 117 tgl 25 0 empty empty empty 17 7 0 10 -262144 -1 -1 0
1;
#X msg 199 93 0;
#N canvas 175 57 800 633 VIDEO_FILE 0;
#N canvas 209 317 351 280 CHANGE_SYMBOL 0;
#X obj 49 117 t s s;
#X obj 49 154 sel s;
#X obj 49 70 inlet;
#X obj 96 228 outlet;
#X obj 96 184 symbol;
#X text 59 19 ** [change] SYMBOL;
#X obj 179 70 inlet RESET;
#X msg 179 99 symbol none;
#X connect 0 0 1 1;
#X connect 0 1 1 0;
#X connect 1 1 4 0;
#X connect 2 0 0 0;
#X connect 4 0 3 0;
#X connect 6 0 7 0;
#X connect 7 0 1 1;
#X restore 294 255 pd CHANGE_SYMBOL;
#X text 188 198 FILTRA SLOTS VAZIOS;
#X obj 90 197 sel none;
#X text 467 255 FILTRA REPETIÇÕES;
#X obj 143 412 s \$0-stop;
#X obj 43 153 s \$0-ioFlush;
#X msg 116 456 0;
#X obj 43 119 t b s;
#X text 247 413 CANCELA REPRODUÇÃO;
#X obj 294 299 outlet VIDEO_FILE;
#X text 149 15 ** GERENCIA CAMINHOS DE ARQUIVOS VINDOS DOS SLOTS;
#X obj 116 490 s \$0-render;
#X text 477 300 SAÍDA DE ARQUIVO DO VÍDEO;
#X msg 90 534 0;
#X obj 90 568 s \$0-frames;
#X text 135 535 ZERA FRAMES EM TODOS OS CÁLCULOS;
#X text 161 457 DESLIGA RENDER;
#X obj 170 358 s \$0-slotState;
#X msg 220 324 1;
#X msg 170 324 0;
#X obj 247 221 t b a;
#X obj 90 231 t b b b b b;
#X text 323 359 ENVIA ESTADO DO SLOT PARA MECANISMO DE PLAY;
#N canvas 180 116 615 361 ACTIVE_FILE_IN 0;
#X obj 134 114 loadbang;
#X obj 134 148 f \$1;
#X obj 134 182 * 10;
#X text 131 217 GERA ATRASO RELATIVO AO CANAL;
#X obj 57 216 del 10;
#X obj 57 70 r \$0-activeFile;
#X obj 57 304 outlet;
#X text 44 21 ** RECEBE ARQUIVO ATIVO DOS SLOTS E ORGANIZA LEITURA
;
#X obj 57 114 t b s;
#X obj 57 250 symbol;
#X text 223 71 RECEBE ARQUIVO ATIVO;
#X connect 0 0 1 0;
#X connect 1 0 2 0;
#X connect 2 0 4 1;
#X connect 4 0 9 0;
#X connect 5 0 8 0;
#X connect 8 0 4 0;
#X connect 8 1 9 1;
#X connect 9 0 6 0;
#X restore 43 85 pd ACTIVE_FILE_IN;
#X text 40 56 RECEBE ARQUIVO DOS SLOTS;
#X connect 0 0 9 0;
#X connect 2 0 21 0;
#X connect 2 1 20 0;
#X connect 6 0 11 0;
#X connect 7 0 5 0;
#X connect 7 1 2 0;
#X connect 13 0 14 0;
#X connect 18 0 17 0;
#X connect 19 0 17 0;
#X connect 20 0 18 0;
#X connect 20 1 0 0;
#X connect 21 0 13 0;
#X connect 21 1 6 0;
#X connect 21 2 4 0;
#X connect 21 3 19 0;
#X connect 21 4 0 1;
#X connect 23 0 7 0;
#X restore 68 196 pd VIDEO_FILE;
#X obj 45 436 s VIDEO_OUT_\$1;
#X text 44 54 RENDERIZAÇÃO;
#X obj 45 83 r \$0-render;
#X obj 332 161 spigot;
#X obj 389 127 r \$0-motor;
#X obj 332 195 s \$0-render;
#X text 197 437 SAÍDA DE VÍDEO PRA ESTÁGIO DE RENDERIZAÇÃO;
#X text 664 55 CURSOR PARA REPRODUÇÃO;
#N canvas 588 167 525 425 LOOP 0;
#X obj 45 165 sel;
#X obj 45 321 spigot;
#X obj 102 287 != 1;
#N canvas 517 270 662 252 COLOR 0;
#X obj 45 41 inlet;
#X obj 45 86 sel 0 1;
#X msg 45 136 color 28 28 0;
#X msg 205 136 color 18 18 22;
#X obj 408 41 loadbang;
#X msg 408 84 color 28 0 0;
#X obj 408 127 s \$0-loopMode_gui_set;
#X obj 45 186 s \$0-loop_gui_set;
#X connect 0 0 1 0;
#X connect 1 0 2 0;
#X connect 1 1 3 0;
#X connect 2 0 7 0;
#X connect 3 0 7 0;
#X connect 4 0 5 0;
#X connect 5 0 6 0;
#X restore 176 277 pd COLOR;
#X obj 102 253 t f f;
#X obj 102 219 r \$0-loop;
#X obj 45 77 r \$0-rawCursor;
#X text 91 166 IDENTIFICA FIM DO MÓDULO NO CURSOR CRU;
#X text 271 278 COR DO BOTÃO DE LOOP;
#X text 208 220 LOOP LIGADO OU NÃO;
#X text 190 366 DESLIGA VÍDEO E ÁUDIO;
#X obj 45 365 s \$0-stop_gui;
#X obj 72 131 r \$0-modulo;
#X text 195 132 RECEBE MÓDULO;
#X text 60 16 ** LOOP - DESLIGA MOTOR NO FIM DO MÓDULO SE O LOOP NÃO
ESTIVER LIGADO, f 40;
#X connect 0 0 1 0;
#X connect 1 0 11 0;
#X connect 2 0 1 1;
#X connect 4 0 2 0;
#X connect 4 1 3 0;
#X connect 5 0 4 0;
#X connect 6 0 0 0;
#X connect 12 0 0 1;
#X restore 960 221 pd LOOP;
#X connect 0 0 2 0;
#X connect 1 0 0 1;
#X connect 2 0 1 0;
#X connect 2 0 25 0;
#X connect 3 0 5 1;
#X connect 4 0 2 1;
#X connect 5 0 0 0;
#X connect 6 0 10 0;
#X connect 7 0 5 0;
#X connect 8 0 7 0;
#X connect 11 0 3 0;
#X connect 12 0 13 0;
#X connect 13 0 20 0;
#X connect 14 0 6 0;
#X connect 20 0 14 0;
#X connect 21 0 20 1;
#X connect 22 0 12 0;
#X connect 23 0 0 1;
#X connect 24 0 22 0;
#X connect 24 0 19 0;
#X connect 25 0 24 0;
#X connect 26 0 23 0;
#X connect 31 0 32 0;
#X connect 32 0 47 0;
#X connect 35 0 44 0;
#X connect 35 1 33 0;
#X connect 36 0 37 0;
#X connect 37 0 35 1;
#X connect 38 0 35 0;
#X connect 39 0 35 0;
#X connect 40 0 42 0;
#X connect 41 0 39 0;
#X connect 42 0 41 0;
#X connect 43 0 38 0;
#X connect 46 0 41 0;
#X connect 47 0 49 0;
#X connect 48 0 47 1;
#X restore 280 98 pd VIDEO_UNIT;
#N canvas 514 131 780 564 ENABLE_BUTTON 0;
#X obj 50 102 t b;
#X obj 50 193 f;
#X obj 90 193 + 1;
#X obj 50 221 % 2;
#X floatatom 50 255 5 0 0 0 - - -, f 5;
#X obj 117 108 loadbang;
#X obj 327 103 sel 1;
#X obj 217 323 sel 1;
#X msg 217 353 1;
#X obj 327 69 r CH\$1_SELECT;
#X obj 217 395 s CH\$1_SELECT;
#X msg 374 169 0;
#X obj 218 276 s V\$1_ST;
#X obj 218 169 r V\$1_SET_ST;
#X msg 62 161 1;
#X obj 50 299 t f f;
#X msg 367 353 0;
#N canvas 685 224 416 283 COLOR 0;
#X obj 45 61 inlet;
#X obj 45 116 sel 0 1;
#X obj 165 140 f 13;
#X msg 165 177 color \$1 0;
#X msg 45 177 color 11 0;
#X obj 202 108 r \$0-channelColor;
#X text 40 18 ** COR DO BOTÃO HABILITAR UNIDADE;
#X obj 45 227 s \$0-enable_set;
#X connect 0 0 1 0;
#X connect 1 0 4 0;
#X connect 1 1 2 0;
#X connect 2 0 3 0;
#X connect 3 0 7 0;
#X connect 4 0 7 0;
#X connect 5 0 2 1;
#X restore 50 467 pd COLOR;
#X text 131 22 ** GERENCIA ESTADO DO BOTÃO PARA HABILITAR UNIDADE
;
#X obj 117 137 del 5;
#X obj 217 510 s SOURCE_BUS;
#X obj 217 437 list prepend sourceChannel\$1;
#X obj 367 395 s \$0-render;
#X obj 218 231 t b;
#X obj 218 202 r REFRESH_SOURCE;
#X obj 501 92 r \$0-externalControl;
#X obj 501 169 route enable;
#X text 498 64 RECEBE CONTROLE EXTERNO;
#X obj 50 68 r \$0-enableClick;
#X obj 217 466 list trim;
#X connect 0 0 1 0;
#X connect 1 0 3 0;
#X connect 2 0 1 1;
#X connect 3 0 2 0;
#X connect 3 0 4 0;
#X connect 4 0 12 0;
#X connect 4 0 15 0;
#X connect 5 0 19 0;
#X connect 6 1 11 0;
#X connect 7 0 8 0;
#X connect 7 1 16 0;
#X connect 8 0 10 0;
#X connect 8 0 21 0;
#X connect 9 0 6 0;
#X connect 11 0 1 0;
#X connect 13 0 1 0;
#X connect 14 0 1 0;
#X connect 15 0 17 0;
#X connect 15 1 7 0;
#X connect 16 0 22 0;
#X connect 19 0 14 0;
#X connect 21 0 29 0;
#X connect 23 0 4 0;
#X connect 24 0 23 0;
#X connect 25 0 26 0;
#X connect 26 0 1 0;
#X connect 28 0 0 0;
#X connect 29 0 20 0;
#X restore 280 132 pd ENABLE_BUTTON;
#N canvas 449 374 670 276 CHANNEL_COLOR 0;
#X obj 47 71 f \$1;
#X obj 47 107 sel 1 2 3 4;
#X msg 47 144 13;
#X msg 196 144 16;
#X msg 97 144 15;
#X obj 47 35 loadbang;
#X msg 147 144 19;
#X msg 437 180 color \$1;
#X text 435 96 IDENTIFICA JANELA DE CONFIG. DE ÁUDIO, f 19;
#X text 183 24 ** DETERMINA COR PADRÃO DO CANAL;
#X obj 437 209 s \$0-audioWinBar;
#X obj 437 151 r \$0-channelColor;
#X obj 47 209 s \$0-channelColor;
#X obj 265 209 s \$0-bgColor;
#X msg 265 144 28;
#X connect 0 0 1 0;
#X connect 1 0 2 0;
#X connect 1 1 4 0;
#X connect 1 2 6 0;
#X connect 1 3 3 0;
#X connect 2 0 12 0;
#X connect 3 0 12 0;
#X connect 4 0 12 0;
#X connect 5 0 0 0;
#X connect 5 0 14 0;
#X connect 6 0 12 0;
#X connect 7 0 10 0;
#X connect 11 0 7 0;
#X connect 14 0 13 0;
#X restore 280 166 pd CHANNEL_COLOR;
#X obj 178 191 tgl 25 0 \$0-loop_gui \$0-loop_gui_set L 8 13 0 18 -62784
-62784 -1 1 1;
#X obj 63 191 tgl 25 0 \$0-play_gui \$0-play_gui_set P 8 13 0 18 -42246
-42246 -262144 0 1;
#N canvas 373 176 599 304 EXTERNAL_CONTROL 0;
#X text 213 137 FILTRA POR CANAL;
#X text 174 170 FILTRA POR MÓDULO;
#X obj 48 234 s \$0-externalControl;
#X text 265 235 ENVIA CONTROLES LOCALMENTE;
#X obj 48 136 route channel\$1;
#X obj 48 72 r OSC_BUS;
#X text 43 19 ** ROTEAMENTO DE CONTROLE EXTERNO VIA MENSAGENS OSC;
#X text 153 69 RECEBE OSC DESEMPACOTADO PELO PATCH PRINCIPAL, f 29
;
#X obj 48 170 route video;
#X connect 4 0 8 0;
#X connect 5 0 4 0;
#X connect 8 0 2 0;
#X restore 280 30 pd EXTERNAL_CONTROL;
#N canvas 147 326 586 382 CONTROL_MEMORY 0;
#N canvas 140 121 990 470 PRESET_MANAGER 0;
#X obj 42 310 list prepend video;
#X obj 42 343 list trim;
#X obj 42 67 r CH\$1_FLUSH;
#X obj 42 390 s CH\$1_PRESET;
#X obj 89 132 s \$0-slotFlush;
#X obj 89 277 r \$0-slotList;
#X text 236 276 RECEBE DADOS DOS SLOTS;
#X text 39 419 ENVIA PARA GESTOR GLOBAL DE PRESETS;
#X text 164 19 ** GERENCIA COMUNICAÇÃO ENTRE SLOTS E GESTOR GLOBAL
DE PRESETS, f 62;
#X obj 531 67 r MAIN_PRESET_SEND;
#X obj 531 124 route \$1;
#X obj 531 154 route video;
#X text 627 124 ROTEIA POR CANAL;
#X obj 735 247 s \$0-slotFilePreset;
#X text 726 64 RECEBE MEMÓRIA DO PRESET GLOBAL, f 17;
#X text 732 276 ENVIA DADOS PARA SLOTS;
#X text 244 133 SOLICITA DADOS DOS SLOTS;
#X obj 69 174 r \$0-activeSlot;
#X obj 42 203 f;
#X obj 42 232 list prepend activeSlot;
#X obj 42 100 t b b;
#X text 236 174 MEMÓRIA DO SLOT ATIVO NA UNIDADE, f 21;
#X obj 531 183 route activeSlot;
#X text 501 337 ENVIA SLOT ATIVO;
#X obj 504 308 s \$0-activeSlot_gui_set;
#X obj 504 269 f;
#X obj 688 215 t b a;
#X connect 0 0 1 0;
#X connect 1 0 3 0;
#X connect 2 0 20 0;
#X connect 5 0 0 0;
#X connect 9 0 10 0;
#X connect 10 0 11 0;
#X connect 11 0 22 0;
#X connect 17 0 18 1;
#X connect 18 0 19 0;
#X connect 19 0 0 0;
#X connect 20 0 18 0;
#X connect 20 1 4 0;
#X connect 22 0 25 1;
#X connect 22 1 26 0;
#X connect 25 0 24 0;
#X connect 26 0 25 0;
#X connect 26 1 13 0;
#X restore 329 84 pd PRESET_MANAGER;
#X text 47 56 SLOTS DE MEMÓRIA LOCAL;
#N canvas 590 370 579 315 SEND_ACTIVE_SLOT 0;
#X obj 45 94 r \$0-activeSlot;
#X obj 45 207 spigot;
#X obj 45 178 f;
#X obj 102 154 t b f;
#X text 88 22 ** ENVIA SLOT ATIVO NO MÓDULO DE VÍDEO PARA MÓDULO
DE TRANSFORMAÇÕES E EFEITOS, f 39;
#X text 120 207 APENAS SE O MÓDULO DE VÍDEO ESTIVER ATIVO;
#X obj 45 246 s V\$1_ACTIVE_SLOT;
#X obj 325 118 s C\$1_ACTIVE_SLOT;
#X text 323 146 ENVIA DIRETO PARA UNIDADE DE CÂMERA, f 17;
#X obj 102 125 r V\$1_ST;
#X connect 0 0 2 0;
#X connect 0 0 7 0;
#X connect 1 0 6 0;
#X connect 2 0 1 0;
#X connect 3 0 2 0;
#X connect 3 1 1 1;
#X connect 9 0 3 0;
#X restore 329 152 pd SEND_ACTIVE_SLOT;
#X text 145 17 ** GESTÃO DA MEMÓRIA LOCAL;
#N canvas 81 88 847 397 AUTOMATION_MANAGER 0;
#X msg 458 119 1;
#X msg 458 249 1;
#X text 502 121 CONVERTE BANG EM VALOR 1;
#X text 502 250 CONVERTE BANG EM VALOR 1;
#X text 150 93 BOTÃO DE HABILITAR UNIDADE;
#X obj 38 89 r V\$1_ST;
#X obj 38 149 s V\$1_SET_ST;
#X obj 38 189 arrast_automato \$0 activeSlot \$1 0 1;
#X obj 38 119 arrast_automato \$0 enableButton \$1 0 0;
#X obj 38 219 arrast_automato \$0 ioMode \$1 0 2;
#X text 206 15 ** GESTÃO LOCAL DO SISTEMA DE AUTOMAÇÕES;
#X text 36 58 UNIDADES DE AUTOMAÇÃO POR PARÂMETRO;
#X obj 458 89 r \$0-rw_gui;
#X obj 458 219 r \$0-stop_gui;
#X obj 38 249 arrast_automato \$0 inSet \$1 0 3;
#X obj 38 279 arrast_automato \$0 outSet \$1 0 4;
#X obj 38 309 arrast_automato \$0 speed \$1 0 5;
#X obj 38 339 arrast_automato \$0 play \$1 0 6;
#X obj 458 149 arrast_automato \$0 rw \$1 1 7;
#X obj 458 179 arrast_automato \$0 inv \$1 0 8;
#X obj 458 279 arrast_automato \$0 stop \$1 1 9;
#X obj 458 309 arrast_automato \$0 loop \$1 0 10;
#X obj 458 339 arrast_automato \$0 loopMode \$1 0 11;
#X connect 0 0 18 0;
#X connect 1 0 20 0;
#X connect 5 0 8 0;
#X connect 8 0 6 0;
#X connect 12 0 0 0;
#X connect 13 0 1 0;
#X restore 329 118 pd AUTOMATION_MANAGER;
#X obj 328 288 s \$0-resetSlot;
#X floatatom 328 259 5 0 0 0 - - -, f 5;
#X msg 329 226 1 \, 2 \, 3 \, 4 \, 5 \, 6 \, 7 \, 8;
#X text 382 200 RESET SLOTS;
#X obj 48 84 arrast_videoslot \$0 \$1 1;
#X obj 48 118 arrast_videoslot \$0 \$1 2;
#X obj 48 152 arrast_videoslot \$0 \$1 3;
#X obj 48 186 arrast_videoslot \$0 \$1 4;
#X obj 48 220 arrast_videoslot \$0 \$1 5;
#X obj 48 254 arrast_videoslot \$0 \$1 6;
#X obj 48 288 arrast_videoslot \$0 \$1 7;
#X obj 48 322 arrast_videoslot \$0 \$1 8;
#X connect 6 0 5 0;
#X connect 7 0 5 0;
#X restore 280 64 pd CONTROL_MEMORY;
#X obj 60 110 hradio 12 1 0 2 \$0-ioMode_gui \$0-ioMode_gui_set MODE
28 6 0 10 -262144 -1 -1 0;
#X obj 118 110 tgl 12 0 \$0-ioLink_gui \$0-ioLink_gui_set LINK 16 6
0 10 -262144 -1 -1 0 1;
#X coords 0 -1 1 1 185 200 2 50 30;
