#N canvas 642 242 527 223 16;
#X obj 50 30 cnv 15 185 80 empty empty empty 20 12 0 14 -228856 -66577
0;
#X obj 52 30 hradio 20 1 0 9 \$0-enableClick \$0-enableClick_set empty
0 -8 0 10 -262144 -1 -1 2;
#X obj 50 30 cnv 15 185 20 \$0-enable \$0-enable_set empty 20 12 0
14 -128992 -262144 0;
#X obj 61 61 hradio 18 1 0 9 \$0-openBrowser \$0-openBrowser_in empty
0 -8 0 10 -262144 -1 -1 2;
#X obj 60 61 cnv 15 165 18 \$0-morto \$0-fileDisplay tumblr_ly...1_1280.jpg
5 9 0 12 -355 -262144 0;
#N canvas 97 130 782 535 ENABLE_BUTTON 0;
#X obj 50 97 t b;
#X obj 50 188 f;
#X obj 90 188 + 1;
#X obj 50 216 % 2;
#X floatatom 50 250 5 0 0 0 - - -, f 5;
#X obj 118 132 loadbang;
#X obj 50 284 t f f;
#X obj 207 308 sel 1;
#X obj 317 64 r CH\$1_SELECT;
#X obj 207 370 s CH\$1_SELECT;
#X msg 364 164 0;
#X obj 317 98 sel 2;
#X msg 62 156 0;
#X msg 207 338 2;
#X msg 367 338 0;
#X obj 208 271 s I\$1_ST;
#X obj 208 164 r I\$1_SET_ST;
#X obj 207 487 s SOURCE_BUS;
#X obj 207 414 list prepend sourceChannel\$1;
#X obj 367 370 s \$0-render;
#N canvas 104 142 425 285 COLOR 0;
#X obj 45 61 inlet;
#X obj 45 116 sel 0 1;
#X obj 165 140 f 13;
#X msg 165 176 color \$1 0;
#X msg 45 176 color 11 0;
#X obj 202 109 r \$0-channelColor;
#X text 40 18 ** COR DO BOTÃO HABILITAR UNIDADE;
#X obj 45 227 s \$0-enable_set;
#X connect 0 0 1 0;
#X connect 1 0 4 0;
#X connect 1 1 2 0;
#X connect 2 0 3 0;
#X connect 3 0 7 0;
#X connect 4 0 7 0;
#X connect 5 0 2 1;
#X restore 50 369 pd COLOR;
#X obj 208 226 t b;
#X obj 208 196 r REFRESH_SOURCE;
#X obj 501 87 r \$0-externalControl;
#X obj 501 164 route enable;
#X text 498 59 RECEBE CONTROLE EXTERNO;
#X text 132 17 ** GERENCIA ESTADO DO BOTÃO PARA HABILITAR UNIDADE
;
#X obj 50 63 r \$0-enableClick;
#X obj 207 443 list trim;
#X connect 0 0 1 0;
#X connect 1 0 3 0;
#X connect 2 0 1 1;
#X connect 3 0 2 0;
#X connect 3 0 4 0;
#X connect 4 0 6 0;
#X connect 4 0 15 0;
#X connect 5 0 12 0;
#X connect 6 0 20 0;
#X connect 6 1 7 0;
#X connect 7 0 13 0;
#X connect 7 1 14 0;
#X connect 8 0 11 0;
#X connect 10 0 1 0;
#X connect 11 1 10 0;
#X connect 12 0 1 0;
#X connect 13 0 9 0;
#X connect 13 0 18 0;
#X connect 14 0 19 0;
#X connect 16 0 1 0;
#X connect 18 0 28 0;
#X connect 21 0 4 0;
#X connect 22 0 21 0;
#X connect 23 0 24 0;
#X connect 24 0 1 0;
#X connect 27 0 0 0;
#X connect 28 0 17 0;
#X restore 280 132 pd ENABLE_BUTTON;
#N canvas 129 305 898 436 IMAGE_UNIT 0;
#X obj 48 149 gemhead \$1;
#X obj 240 80 r CH\$1_SELECT;
#X obj 240 114 == 2;
#X obj 48 114 tgl 25 0 empty empty empty 17 7 0 10 -262144 -1 -1 0
1;
#X text 237 51 HABILITA IMAGEM;
#X text 571 124 IGNORA SLOTS VAZIOS;
#X obj 458 124 route none;
#X obj 295 292 - 1;
#X obj 48 326 pix_buffer_read \$0_buffer;
#N canvas 160 187 900 237 IMAGE_BUFFER 0;
#X obj 41 43 inlet;
#N canvas 121 188 531 404 OPEN_1 0;
#X obj 39 105 unpack s f;
#X obj 39 272 pack s f;
#X msg 39 306 open \$1 \$2;
#X obj 39 61 inlet;
#X obj 136 170 == 1;
#X obj 39 194 spigot;
#X obj 136 136 t f f;
#X obj 39 350 outlet;
#X text 215 239 FILTRA REPETIÇÕES;
#X text 193 171 FILTRA POR SLOT NO BUFFER;
#X obj 183 204 - 1;
#X text 229 204 CORRIGE INDEX PARA BUFFER;
#N canvas 219 322 351 280 CHANGE_SYMBOL 0;
#X obj 49 117 t s s;
#X obj 49 154 sel s;
#X obj 49 70 inlet;
#X obj 96 228 outlet;
#X obj 96 184 symbol;
#X text 59 19 ** [change] SYMBOL;
#X obj 179 70 inlet RESET;
#X msg 179 99 symbol none;
#X connect 0 0 1 1;
#X connect 0 1 1 0;
#X connect 1 1 4 0;
#X connect 2 0 0 0;
#X connect 4 0 3 0;
#X connect 6 0 7 0;
#X connect 7 0 1 1;
#X restore 39 238 pd CHANGE_SYMBOL;
#X text 38 19 ** DISTRIBUI IMAGENS PARA CADA SLOT DO BUFFER;
#X connect 0 0 5 0;
#X connect 0 1 6 0;
#X connect 1 0 2 0;
#X connect 2 0 7 0;
#X connect 3 0 0 0;
#X connect 4 0 5 1;
#X connect 5 0 12 0;
#X connect 6 0 4 0;
#X connect 6 1 10 0;
#X connect 10 0 1 1;
#X connect 12 0 1 0;
#X restore 41 121 pd OPEN_1;
#X text 277 176 BUFFER PARA 8 IMAGENS;
#X text 215 20 ** DISTRIBUI IMAGENS NOS SLOTS DO BUFFER LOCAL;
#X obj 41 77 t a a a a a a a a;
#N canvas 103 179 531 404 OPEN_2 0;
#X obj 39 105 unpack s f;
#X obj 39 272 pack s f;
#X msg 39 306 open \$1 \$2;
#X obj 39 61 inlet;
#X obj 39 194 spigot;
#X obj 136 136 t f f;
#X obj 39 350 outlet;
#X text 215 239 FILTRA REPETIÇÕES;
#X text 193 171 FILTRA POR SLOT NO BUFFER;
#X obj 183 204 - 1;
#X text 229 204 CORRIGE INDEX PARA BUFFER;
#N canvas 217 321 351 280 CHANGE_SYMBOL 0;
#X obj 49 117 t s s;
#X obj 49 154 sel s;
#X obj 49 70 inlet;
#X obj 96 228 outlet;
#X obj 96 184 symbol;
#X text 59 19 ** [change] SYMBOL;
#X obj 179 70 inlet RESET;
#X msg 179 99 symbol none;
#X connect 0 0 1 1;
#X connect 0 1 1 0;
#X connect 1 1 4 0;
#X connect 2 0 0 0;
#X connect 4 0 3 0;
#X connect 6 0 7 0;
#X connect 7 0 1 1;
#X restore 39 238 pd CHANGE_SYMBOL;
#X text 38 19 ** DISTRIBUI IMAGENS PARA CADA SLOT DO BUFFER;
#X obj 136 170 == 2;
#X connect 0 0 4 0;
#X connect 0 1 5 0;
#X connect 1 0 2 0;
#X connect 2 0 6 0;
#X connect 3 0 0 0;
#X connect 4 0 11 0;
#X connect 5 0 13 0;
#X connect 5 1 9 0;
#X connect 9 0 1 1;
#X connect 11 0 1 0;
#X connect 13 0 4 1;
#X restore 145 121 pd OPEN_2;
#N canvas 101 178 531 404 OPEN_3 0;
#X obj 39 105 unpack s f;
#X obj 39 272 pack s f;
#X msg 39 306 open \$1 \$2;
#X obj 39 61 inlet;
#X obj 39 194 spigot;
#X obj 136 136 t f f;
#X obj 39 350 outlet;
#X text 215 239 FILTRA REPETIÇÕES;
#X text 193 171 FILTRA POR SLOT NO BUFFER;
#X obj 183 204 - 1;
#X text 229 204 CORRIGE INDEX PARA BUFFER;
#N canvas 215 320 351 280 CHANGE_SYMBOL 0;
#X obj 49 117 t s s;
#X obj 49 154 sel s;
#X obj 49 70 inlet;
#X obj 96 228 outlet;
#X obj 96 184 symbol;
#X text 59 19 ** [change] SYMBOL;
#X obj 179 70 inlet RESET;
#X msg 179 99 symbol none;
#X connect 0 0 1 1;
#X connect 0 1 1 0;
#X connect 1 1 4 0;
#X connect 2 0 0 0;
#X connect 4 0 3 0;
#X connect 6 0 7 0;
#X connect 7 0 1 1;
#X restore 39 238 pd CHANGE_SYMBOL;
#X text 38 19 ** DISTRIBUI IMAGENS PARA CADA SLOT DO BUFFER;
#X obj 136 170 == 3;
#X connect 0 0 4 0;
#X connect 0 1 5 0;
#X connect 1 0 2 0;
#X connect 2 0 6 0;
#X connect 3 0 0 0;
#X connect 4 0 11 0;
#X connect 5 0 13 0;
#X connect 5 1 9 0;
#X connect 9 0 1 1;
#X connect 11 0 1 0;
#X connect 13 0 4 1;
#X restore 249 121 pd OPEN_3;
#N canvas 101 178 531 404 OPEN_4 0;
#X obj 39 105 unpack s f;
#X obj 39 272 pack s f;
#X msg 39 306 open \$1 \$2;
#X obj 39 61 inlet;
#X obj 39 194 spigot;
#X obj 136 136 t f f;
#X obj 39 350 outlet;
#X text 215 239 FILTRA REPETIÇÕES;
#X text 193 171 FILTRA POR SLOT NO BUFFER;
#X obj 183 204 - 1;
#X text 229 204 CORRIGE INDEX PARA BUFFER;
#N canvas 215 320 351 280 CHANGE_SYMBOL 0;
#X obj 49 117 t s s;
#X obj 49 154 sel s;
#X obj 49 70 inlet;
#X obj 96 228 outlet;
#X obj 96 184 symbol;
#X text 59 19 ** [change] SYMBOL;
#X obj 179 70 inlet RESET;
#X msg 179 99 symbol none;
#X connect 0 0 1 1;
#X connect 0 1 1 0;
#X connect 1 1 4 0;
#X connect 2 0 0 0;
#X connect 4 0 3 0;
#X connect 6 0 7 0;
#X connect 7 0 1 1;
#X restore 39 238 pd CHANGE_SYMBOL;
#X text 38 19 ** DISTRIBUI IMAGENS PARA CADA SLOT DO BUFFER;
#X obj 136 170 == 4;
#X connect 0 0 4 0;
#X connect 0 1 5 0;
#X connect 1 0 2 0;
#X connect 2 0 6 0;
#X connect 3 0 0 0;
#X connect 4 0 11 0;
#X connect 5 0 13 0;
#X connect 5 1 9 0;
#X connect 9 0 1 1;
#X connect 11 0 1 0;
#X connect 13 0 4 1;
#X restore 353 121 pd OPEN_4;
#N canvas 101 178 531 404 OPEN_5 0;
#X obj 39 105 unpack s f;
#X obj 39 272 pack s f;
#X msg 39 306 open \$1 \$2;
#X obj 39 61 inlet;
#X obj 39 194 spigot;
#X obj 136 136 t f f;
#X obj 39 350 outlet;
#X text 215 239 FILTRA REPETIÇÕES;
#X text 193 171 FILTRA POR SLOT NO BUFFER;
#X obj 183 204 - 1;
#X text 229 204 CORRIGE INDEX PARA BUFFER;
#N canvas 215 320 351 280 CHANGE_SYMBOL 0;
#X obj 49 117 t s s;
#X obj 49 154 sel s;
#X obj 49 70 inlet;
#X obj 96 228 outlet;
#X obj 96 184 symbol;
#X text 59 19 ** [change] SYMBOL;
#X obj 179 70 inlet RESET;
#X msg 179 99 symbol none;
#X connect 0 0 1 1;
#X connect 0 1 1 0;
#X connect 1 1 4 0;
#X connect 2 0 0 0;
#X connect 4 0 3 0;
#X connect 6 0 7 0;
#X connect 7 0 1 1;
#X restore 39 238 pd CHANGE_SYMBOL;
#X text 38 19 ** DISTRIBUI IMAGENS PARA CADA SLOT DO BUFFER;
#X obj 136 170 == 5;
#X connect 0 0 4 0;
#X connect 0 1 5 0;
#X connect 1 0 2 0;
#X connect 2 0 6 0;
#X connect 3 0 0 0;
#X connect 4 0 11 0;
#X connect 5 0 13 0;
#X connect 5 1 9 0;
#X connect 9 0 1 1;
#X connect 11 0 1 0;
#X connect 13 0 4 1;
#X restore 457 121 pd OPEN_5;
#N canvas 101 178 531 404 OPEN_6 0;
#X obj 39 105 unpack s f;
#X obj 39 272 pack s f;
#X msg 39 306 open \$1 \$2;
#X obj 39 61 inlet;
#X obj 39 194 spigot;
#X obj 136 136 t f f;
#X obj 39 350 outlet;
#X text 215 239 FILTRA REPETIÇÕES;
#X text 193 171 FILTRA POR SLOT NO BUFFER;
#X obj 183 204 - 1;
#X text 229 204 CORRIGE INDEX PARA BUFFER;
#N canvas 215 320 351 280 CHANGE_SYMBOL 0;
#X obj 49 117 t s s;
#X obj 49 154 sel s;
#X obj 49 70 inlet;
#X obj 96 228 outlet;
#X obj 96 184 symbol;
#X text 59 19 ** [change] SYMBOL;
#X obj 179 70 inlet RESET;
#X msg 179 99 symbol none;
#X connect 0 0 1 1;
#X connect 0 1 1 0;
#X connect 1 1 4 0;
#X connect 2 0 0 0;
#X connect 4 0 3 0;
#X connect 6 0 7 0;
#X connect 7 0 1 1;
#X restore 39 238 pd CHANGE_SYMBOL;
#X text 38 19 ** DISTRIBUI IMAGENS PARA CADA SLOT DO BUFFER;
#X obj 136 170 == 6;
#X connect 0 0 4 0;
#X connect 0 1 5 0;
#X connect 1 0 2 0;
#X connect 2 0 6 0;
#X connect 3 0 0 0;
#X connect 4 0 11 0;
#X connect 5 0 13 0;
#X connect 5 1 9 0;
#X connect 9 0 1 1;
#X connect 11 0 1 0;
#X connect 13 0 4 1;
#X restore 561 121 pd OPEN_6;
#N canvas 101 178 531 404 OPEN_7 0;
#X obj 39 105 unpack s f;
#X obj 39 272 pack s f;
#X msg 39 306 open \$1 \$2;
#X obj 39 61 inlet;
#X obj 39 194 spigot;
#X obj 136 136 t f f;
#X obj 39 350 outlet;
#X text 215 239 FILTRA REPETIÇÕES;
#X text 193 171 FILTRA POR SLOT NO BUFFER;
#X obj 183 204 - 1;
#X text 229 204 CORRIGE INDEX PARA BUFFER;
#N canvas 215 320 351 280 CHANGE_SYMBOL 0;
#X obj 49 117 t s s;
#X obj 49 154 sel s;
#X obj 49 70 inlet;
#X obj 96 228 outlet;
#X obj 96 184 symbol;
#X text 59 19 ** [change] SYMBOL;
#X obj 179 70 inlet RESET;
#X msg 179 99 symbol none;
#X connect 0 0 1 1;
#X connect 0 1 1 0;
#X connect 1 1 4 0;
#X connect 2 0 0 0;
#X connect 4 0 3 0;
#X connect 6 0 7 0;
#X connect 7 0 1 1;
#X restore 39 238 pd CHANGE_SYMBOL;
#X text 38 19 ** DISTRIBUI IMAGENS PARA CADA SLOT DO BUFFER;
#X obj 136 170 == 7;
#X connect 0 0 4 0;
#X connect 0 1 5 0;
#X connect 1 0 2 0;
#X connect 2 0 6 0;
#X connect 3 0 0 0;
#X connect 4 0 11 0;
#X connect 5 0 13 0;
#X connect 5 1 9 0;
#X connect 9 0 1 1;
#X connect 11 0 1 0;
#X connect 13 0 4 1;
#X restore 665 121 pd OPEN_7;
#N canvas 101 178 531 404 OPEN_8 0;
#X obj 39 105 unpack s f;
#X obj 39 272 pack s f;
#X msg 39 306 open \$1 \$2;
#X obj 39 61 inlet;
#X obj 39 194 spigot;
#X obj 136 136 t f f;
#X obj 39 350 outlet;
#X text 215 239 FILTRA REPETIÇÕES;
#X text 193 171 FILTRA POR SLOT NO BUFFER;
#X obj 183 204 - 1;
#X text 229 204 CORRIGE INDEX PARA BUFFER;
#N canvas 215 320 351 280 CHANGE_SYMBOL 0;
#X obj 49 117 t s s;
#X obj 49 154 sel s;
#X obj 49 70 inlet;
#X obj 96 228 outlet;
#X obj 96 184 symbol;
#X text 59 19 ** [change] SYMBOL;
#X obj 179 70 inlet RESET;
#X msg 179 99 symbol none;
#X connect 0 0 1 1;
#X connect 0 1 1 0;
#X connect 1 1 4 0;
#X connect 2 0 0 0;
#X connect 4 0 3 0;
#X connect 6 0 7 0;
#X connect 7 0 1 1;
#X restore 39 238 pd CHANGE_SYMBOL;
#X text 38 19 ** DISTRIBUI IMAGENS PARA CADA SLOT DO BUFFER;
#X obj 136 170 == 8;
#X connect 0 0 4 0;
#X connect 0 1 5 0;
#X connect 1 0 2 0;
#X connect 2 0 6 0;
#X connect 3 0 0 0;
#X connect 4 0 11 0;
#X connect 5 0 13 0;
#X connect 5 1 9 0;
#X connect 9 0 1 1;
#X connect 11 0 1 0;
#X connect 13 0 4 1;
#X restore 769 121 pd OPEN_8;
#X obj 41 175 pix_buffer \$0_buffer 8;
#X connect 0 0 4 0;
#X connect 1 0 12 0;
#X connect 4 0 1 0;
#X connect 4 1 5 0;
#X connect 4 2 6 0;
#X connect 4 3 7 0;
#X connect 4 4 8 0;
#X connect 4 5 9 0;
#X connect 4 6 10 0;
#X connect 4 7 11 0;
#X connect 5 0 12 0;
#X connect 6 0 12 0;
#X connect 7 0 12 0;
#X connect 8 0 12 0;
#X connect 9 0 12 0;
#X connect 10 0 12 0;
#X connect 11 0 12 0;
#X restore 602 192 pd IMAGE_BUFFER;
#X text 600 221 BUFFER LOCAL PARA IMAGENS;
#X text 459 225 SLOT ATIVO;
#X text 339 292 AJUSTA PARA LEITURA DO BUFFER, f 19;
#X obj 48 80 r \$0-render;
#X obj 240 148 s \$0-render;
#X text 334 14 ** UNIDADE DE IMAGEM;
#X obj 555 158 t b a;
#X obj 295 224 r \$0-activeSlot;
#X obj 295 258 f;
#X text 46 51 RENDERIZAÇÃO;
#X obj 48 380 s IMAGE_OUT_\$1;
#N canvas 174 113 615 601 ACTIVE_FILE_IN 0;
#X obj 134 114 loadbang;
#X obj 134 148 f \$1;
#X obj 134 182 * 10;
#X text 131 217 GERA ATRASO RELATIVO AO CANAL;
#X obj 57 216 del 10;
#X obj 57 114 t b a;
#X obj 57 250 list;
#X obj 105 318 unpack s f;
#X obj 202 352 t f f;
#X obj 249 386 * 10;
#X obj 57 444 pack 0 s f;
#X obj 57 410 del 10;
#X obj 57 284 t b l;
#X obj 57 478 route 0;
#X text 301 387 GERA ATRASO POR SLOT;
#X obj 57 546 outlet;
#X obj 57 512 list trim;
#X text 44 21 ** RECEBE ARQUIVO ATIVO DOS SLOTS E ORGANIZA LEITURA
;
#X connect 0 0 1 0;
#X connect 1 0 2 0;
#X connect 2 0 4 1;
#X connect 4 0 6 0;
#X connect 5 0 4 0;
#X connect 5 1 6 1;
#X connect 6 0 12 0;
#X connect 7 0 10 1;
#X connect 7 1 8 0;
#X connect 8 0 10 2;
#X connect 8 1 9 0;
#X connect 9 0 11 1;
#X connect 10 0 13 0;
#X connect 11 0 10 0;
#X connect 12 0 11 0;
#X connect 12 1 7 0;
#X connect 13 0 16 0;
#X connect 16 0 15 0;
#X restore 664 11 pd ACTIVE_FILE_IN;
#X obj 458 80 r \$0-activeFile;
#X text 456 51 RECEBE LISTA COM ARQUIVO/SLOT;
#X connect 0 0 8 0;
#X connect 1 0 2 0;
#X connect 2 0 14 0;
#X connect 3 0 0 0;
#X connect 6 1 16 0;
#X connect 7 0 8 1;
#X connect 8 0 20 0;
#X connect 13 0 3 0;
#X connect 16 0 18 0;
#X connect 16 1 9 0;
#X connect 17 0 18 0;
#X connect 18 0 7 0;
#X connect 22 0 6 0;
#X restore 280 98 pd IMAGE_UNIT;
#N canvas 439 369 533 276 CHANNEL_COLOR 0;
#X obj 47 71 f \$1;
#X obj 47 107 sel 1 2 3 4;
#X msg 47 144 13;
#X msg 196 144 16;
#X msg 97 144 15;
#X obj 47 35 loadbang;
#X msg 265 144 28;
#X msg 147 144 19;
#X text 173 24 ** DETERMINA COR PADRÃO DO CANAL;
#X obj 47 209 s \$0-channelColor;
#X obj 265 209 s \$0-bgColor;
#X connect 0 0 1 0;
#X connect 1 0 2 0;
#X connect 1 1 4 0;
#X connect 1 2 7 0;
#X connect 1 3 3 0;
#X connect 2 0 9 0;
#X connect 3 0 9 0;
#X connect 4 0 9 0;
#X connect 5 0 0 0;
#X connect 5 0 6 0;
#X connect 6 0 10 0;
#X connect 7 0 9 0;
#X restore 280 166 pd CHANNEL_COLOR;
#N canvas 97 189 692 141 select_slot 0;
#X msg 500 53 color \$1;
#X obj 500 21 r \$0-bgColor;
#X obj 105 53 bng 15 250 50 0 \$0-clickSlot1 \$0-clickSlot1_set empty
17 7 0 10 -262144 -1 -1;
#X obj 125 53 bng 15 250 50 0 \$0-clickSlot2 \$0-clickSlot2_set empty
17 7 0 10 -262144 -1 -1;
#X obj 145 53 bng 15 250 50 0 \$0-clickSlot3 \$0-clickSlot3_set empty
17 7 0 10 -262144 -1 -1;
#X obj 165 53 bng 15 250 50 0 \$0-clickSlot4 \$0-clickSlot4_set empty
17 7 0 10 -262144 -1 -1;
#X obj 185 53 bng 15 250 50 0 \$0-clickSlot5 \$0-clickSlot5_set empty
17 7 0 10 -262144 -1 -1;
#X obj 205 53 bng 15 250 50 0 \$0-clickSlot6 \$0-clickSlot6_set empty
17 7 0 10 -262144 -1 -1;
#X obj 225 53 bng 15 250 50 0 \$0-clickSlot7 \$0-clickSlot7_set empty
17 7 0 10 -262144 -1 -1;
#X obj 245 53 bng 15 250 50 0 \$0-clickSlot8 \$0-clickSlot8_set empty
17 7 0 10 -262144 -1 -1;
#X obj 100 50 cnv 15 165 21 empty \$0-slotsBG empty 20 12 0 14 -355
-262144 0;
#X obj 105 53 cnv 15 15 15 empty \$0-colorSlot1 1 4 8 0 12 -166441
-1 0;
#X obj 125 53 cnv 15 15 15 empty \$0-colorSlot2 2 4 8 0 12 -166441
-1 0;
#X obj 145 53 cnv 15 15 15 empty \$0-colorSlot3 3 4 8 0 12 -166441
-1 0;
#X obj 165 53 cnv 15 15 15 empty \$0-colorSlot4 4 4 8 0 12 -24198 -1
0;
#X obj 185 53 cnv 15 15 15 empty \$0-colorSlot5 5 4 8 0 12 -166441
-1 0;
#X obj 205 53 cnv 15 15 15 empty \$0-colorSlot6 6 4 8 0 12 -166441
-1 0;
#X obj 225 53 cnv 15 15 15 empty \$0-colorSlot7 7 4 8 0 12 -166441
-1 0;
#X obj 245 53 cnv 15 15 15 empty \$0-colorSlot8 8 4 8 0 12 -166441
-1 0;
#N canvas 106 189 411 304 BROWSE_FILE 0;
#X obj 44 121 t b;
#X obj 44 187 openpanel;
#X obj 44 234 s \$0-slotFileIn;
#X obj 44 91 r \$0-openBrowser;
#X text 210 234 ENVIA PARA SLOTS;
#X obj 44 155 symbol Images/;
#X text 50 21 ** CHAMA JANELA DE ABERTURA DE ARQUIVO A PARTIR DA INTERFACE
, f 30;
#X connect 0 0 5 0;
#X connect 1 0 2 0;
#X connect 3 0 0 0;
#X connect 5 0 1 0;
#X restore 304 53 pd BROWSE_FILE;
#N canvas 218 122 663 329 FILE_DISPLAY 0;
#X msg 221 226 label \$1;
#X msg 47 226 color \$1;
#X obj 434 197 loadbang;
#X obj 221 197 arrast_namecut 22;
#X obj 144 66 r \$0-activeFile;
#X obj 144 130 sel none;
#X obj 47 197 r \$0-bgColor;
#X text 238 133 FILTRA SLOTS VAZIOS;
#X text 44 169 COR DE FUNDO;
#X text 308 67 RECEBE ARQUIVO ATIVO;
#X text 48 21 ** GERENCIA CONTEÚDO EXIBIDO NO VISOR DE NOME DO ARQUIVO
;
#X obj 144 98 unpack s f;
#X msg 434 226 label OPEN_IMAGE;
#X obj 221 272 s \$0-fileDisplay;
#X connect 0 0 13 0;
#X connect 1 0 13 0;
#X connect 2 0 12 0;
#X connect 3 0 0 0;
#X connect 4 0 11 0;
#X connect 5 0 12 0;
#X connect 5 1 3 0;
#X connect 6 0 1 0;
#X connect 11 0 5 0;
#X connect 12 0 13 0;
#X restore 304 84 pd FILE_DISPLAY;
#N canvas 74 421 1253 455 ACTIVE_SLOT 0;
#X msg 18 271 1;
#X msg 188 271 2;
#X msg 358 271 3;
#X msg 528 271 4;
#X msg 698 271 5;
#X msg 868 271 6;
#X msg 1038 271 7;
#X msg 1208 271 8;
#X obj 18 144 loadbang;
#X obj 616 331 f 1;
#X obj 18 173 del 5;
#X obj 616 89 r \$0-flushActiveSlot;
#X obj 616 391 s \$0-activeSlot;
#X text 830 90 ATUALIZA SLOT ATIVO;
#X obj 696 133 r \$0-activeSlot_gui_set;
#X text 941 133 RECEBE DO GESTOR DE PRESETS E DA AUTOMAÇÃO;
#X obj 616 206 int;
#X text 186 212 CLIQUES NO SELETOR DE SLOTS;
#X obj 1208 240 r \$0-clickSlot8;
#X obj 1038 240 r \$0-clickSlot7;
#X obj 868 240 r \$0-clickSlot6;
#X obj 698 240 r \$0-clickSlot5;
#X obj 528 240 r \$0-clickSlot4;
#X obj 358 240 r \$0-clickSlot3;
#X obj 188 240 r \$0-clickSlot2;
#X obj 18 240 r \$0-clickSlot1;
#X obj 616 123 t b;
#X obj 616 55 r REFRESH_ACTIVE_SLOT;
#X text 211 14 ** GERENCIA MUDANÇA DE SLOT ATIVO PELA INTERFACE \,
PRESETS E CONTROLE EXTERNO OSC, f 80;
#X obj 374 89 r \$0-externalControl;
#X text 371 61 CONTROLE EXTERNO;
#X obj 374 123 route activeSlot;
#X obj 616 177 clip 1 8;
#X connect 0 0 9 0;
#X connect 1 0 9 0;
#X connect 2 0 9 0;
#X connect 3 0 9 0;
#X connect 4 0 9 0;
#X connect 5 0 9 0;
#X connect 6 0 9 0;
#X connect 7 0 9 0;
#X connect 8 0 10 0;
#X connect 9 0 12 0;
#X connect 10 0 0 0;
#X connect 11 0 26 0;
#X connect 14 0 32 0;
#X connect 16 0 9 0;
#X connect 18 0 7 0;
#X connect 19 0 6 0;
#X connect 20 0 5 0;
#X connect 21 0 4 0;
#X connect 22 0 3 0;
#X connect 23 0 2 0;
#X connect 24 0 1 0;
#X connect 25 0 0 0;
#X connect 26 0 9 0;
#X connect 27 0 26 0;
#X connect 29 0 31 0;
#X connect 31 0 32 0;
#X connect 32 0 16 0;
#X restore 304 22 pd ACTIVE_SLOT;
#X obj 500 84 s \$0-slotsBG;
#X connect 0 0 22 0;
#X connect 1 0 0 0;
#X coords 0 -1 1 1 165 21 2 100 50;
#X restore 60 79 pd select_slot;
#N canvas 638 262 586 372 CONTROL_MEMORY 0;
#N canvas 86 252 1061 478 PRESET_MANAGER 0;
#X obj 42 346 list trim;
#X obj 42 67 r CH\$1_FLUSH;
#X obj 42 393 s CH\$1_PRESET;
#X obj 89 132 s \$0-slotFlush;
#X obj 72 280 r \$0-slotList;
#X text 218 279 RECEBE DADOS DOS SLOTS;
#X text 39 422 ENVIA PARA GESTOR GLOBAL DE PRESETS;
#X text 204 19 ** GERENCIA COMUNICAÇÃO ENTRE SLOTS E GESTOR GLOBAL
DE PRESETS, f 62;
#X obj 541 67 r MAIN_PRESET_SEND;
#X obj 588 204 route \$1;
#X obj 541 100 t b a;
#X obj 541 160 s \$0-flushActiveSlot;
#X text 684 204 ROTEIA POR CANAL;
#X obj 792 334 s \$0-slotFilePreset;
#X text 736 64 RECEBE MEMÓRIA DO PRESET GLOBAL, f 17;
#X text 755 160 ATUALIZA SLOT ATUAL;
#X text 789 363 ENVIA DADOS PARA SLOTS;
#X text 245 132 SOLICITA DADOS DOS SLOTS;
#X obj 42 313 list prepend image;
#X obj 588 234 route image;
#X obj 69 176 r \$0-activeSlot;
#X obj 42 205 f;
#X obj 42 234 list prepend activeSlot;
#X text 236 176 MEMÓRIA DO SLOT ATIVO NA UNIDADE, f 21;
#X obj 588 264 route activeSlot;
#X text 558 425 ENVIA SLOT ATIVO;
#X obj 42 100 t b b;
#X obj 541 132 del 5;
#X obj 561 362 f;
#X obj 745 298 t b a;
#X obj 561 396 s \$0-activeSlot_gui_set;
#X connect 0 0 2 0;
#X connect 1 0 26 0;
#X connect 4 0 18 0;
#X connect 8 0 10 0;
#X connect 9 0 19 0;
#X connect 10 0 27 0;
#X connect 10 1 9 0;
#X connect 18 0 0 0;
#X connect 19 0 24 0;
#X connect 20 0 21 1;
#X connect 21 0 22 0;
#X connect 22 0 18 0;
#X connect 24 0 28 1;
#X connect 24 1 29 0;
#X connect 26 0 21 0;
#X connect 26 1 3 0;
#X connect 27 0 11 0;
#X connect 28 0 30 0;
#X connect 29 0 28 0;
#X connect 29 1 13 0;
#X restore 327 84 pd PRESET_MANAGER;
#X text 196 17 ** MEMÓRIA LOCAL;
#X text 47 56 SLOTS DE MEMÓRIA LOCAL;
#X obj 48 84 arrast_imageslot \$0 \$1 1;
#N canvas 755 448 569 315 SEND_ACTIVE_SLOT 0;
#X obj 45 94 r \$0-activeSlot;
#X obj 45 207 spigot;
#X obj 45 178 f;
#X obj 102 154 t b f;
#X text 88 22 ** ENVIA SLOT ATIVO NO MÓDULO DE VÍDEO PARA MÓDULO
DE TRANSFORMAÇÕES E EFEITOS, f 39;
#X obj 45 246 s I\$1_ACTIVE_SLOT;
#X obj 295 118 s C\$1_ACTIVE_SLOT;
#X text 293 146 ENVIA DIRETO PARA UNIDADE DE CÂMERA, f 17;
#X text 120 207 APENAS SE O MÓDULO DE IMAGEM ESTIVER ATIVO;
#X obj 102 125 r I\$1_ST;
#X connect 0 0 2 0;
#X connect 0 0 6 0;
#X connect 1 0 5 0;
#X connect 2 0 1 0;
#X connect 3 0 2 0;
#X connect 3 1 1 1;
#X connect 9 0 3 0;
#X restore 327 152 pd SEND_ACTIVE_SLOT;
#N canvas 133 189 499 284 AUTOMATION_MANAGER 0;
#X text 309 190 SLOT ATIVO;
#X text 169 110 BOTÃO DE HABILITAR UNIDADE;
#X text 44 20 ** GESTÃO LOCAL DA MEMÓRIA DE AUTOMAÇÕES;
#X obj 49 102 r I\$1_ST;
#X obj 49 170 s I\$1_SET_ST;
#X text 47 70 UNIDADES DE AUTOMAÇÃO POR PARÂMETRO;
#X obj 49 136 arrast_automato \$0 enableButton \$1 0 12;
#X obj 49 216 arrast_automato \$0 activeSlot \$1 0 13;
#X connect 3 0 6 0;
#X connect 6 0 4 0;
#X restore 327 118 pd AUTOMATION_MANAGER;
#X obj 48 118 arrast_imageslot \$0 \$1 2;
#X obj 48 152 arrast_imageslot \$0 \$1 3;
#X obj 48 186 arrast_imageslot \$0 \$1 4;
#X obj 48 220 arrast_imageslot \$0 \$1 5;
#X obj 48 254 arrast_imageslot \$0 \$1 6;
#X obj 48 288 arrast_imageslot \$0 \$1 7;
#X obj 48 322 arrast_imageslot \$0 \$1 8;
#X restore 280 64 pd CONTROL_MEMORY;
#N canvas 397 214 605 306 EXTERNAL_CONTROL 0;
#X text 213 137 FILTRA POR CANAL;
#X text 174 170 FILTRA POR MÓDULO;
#X obj 48 234 s \$0-externalControl;
#X text 265 235 ENVIA CONTROLES LOCALMENTE;
#X obj 48 136 route channel\$1;
#X obj 48 72 r OSC_BUS;
#X text 43 19 ** ROTEAMENTO DE CONTROLE EXTERNO VIA MENSAGENS OSC;
#X text 153 69 RECEBE OSC DESEMPACOTADO PELO PATCH PRINCIPAL, f 29
;
#X obj 48 170 route image;
#X connect 4 0 8 0;
#X connect 5 0 4 0;
#X connect 8 0 2 0;
#X restore 280 30 pd EXTERNAL_CONTROL;
#X coords 0 -1 1 1 185 80 2 50 30;
